<svg xmlns="http://www.w3.org/2000/svg" width="503.779" height="601.894" viewBox="0 0 503.779 601.894">
  <g id="Group_181" data-name="Group 181" transform="translate(-6.575 28.057)">
    <g id="Group_44" data-name="Group 44" transform="translate(31.577 118.975)">
      <path id="Path_114" data-name="Path 114" d="M461.509,450.787c-24.256-18.428-65.74-64.158-11.111-135.943,67.556-88.77-13.349-125.191-90.9-121.39-62.389,3.059-132.6-75.376-202.645-61.357-92.966,18.606-32.6,98.664-95.637,141.8C7.462,310.678,30.541,422.76,100.507,450.787Z" transform="translate(-31.577 -113.559)" fill="#dcedf9"/>
      <path id="Path_115" data-name="Path 115" d="M466.576,275.572c-.374-13.163-12.636-18.269-20.821-8.74a41.088,41.088,0,0,0-10.01,23.8c-1.874,23.47,18.659,16.668,26.332,4.1C465.35,289.371,466.766,282.226,466.576,275.572Z" transform="translate(5.278 -101.564)" fill="#dcedf9"/>
      <path id="Path_116" data-name="Path 116" d="M236.974,114.983c-13.164.349-18.293,12.6-8.778,20.805a41.079,41.079,0,0,0,23.778,10.053c23.467,1.917,16.7-18.628,4.151-26.324C250.771,116.235,243.628,114.805,236.974,114.983Z" transform="translate(-14.089 -114.969)" fill="#dcedf9"/>
      <path id="Path_117" data-name="Path 117" d="M73.775,233.687c5.177-12.109-3.816-21.884-15.242-16.663a41.084,41.084,0,0,0-19.061,17.41c-11.538,20.524,9.954,22.955,22.188,14.761C66.876,245.7,71.157,239.808,73.775,233.687Z" transform="translate(-31.158 -105.791)" fill="#dcedf9"/>
    </g>
    <ellipse id="Ellipse_3" data-name="Ellipse 3" cx="221.785" cy="17.852" rx="221.785" ry="17.852" transform="translate(49.89 445.19)" fill="#dcedf9"/>
    <g id="Group_55" data-name="Group 55" transform="translate(32.994 409.099)">
      <g id="Group_49" data-name="Group 49" transform="translate(390.402 48.422)">
        <g id="Group_46" data-name="Group 46" transform="translate(0 13.786)">
          <path id="Path_118" data-name="Path 118" d="M390.956,435.041a20.612,20.612,0,0,0,1.536,4.8h36.021c1.419-3.379,1.414-6.9-.684-9.889-13.125-18.691,3.067-18.316,5.631-31.092,2.813-14.016-10.538-6.77-6.488-25.539,5.489-25.435-6.41-37.65-12.43-22.969-5.68,13.85-2.76,19.52-16.654,29.9-11.522,8.611,8.589,22.394-2.831,36.009C390.189,422.067,389.8,429,390.956,435.041Z" transform="translate(-390.412 -344.028)" fill="#007fe9"/>
          <g id="Group_45" data-name="Group 45" transform="translate(14.216 25.274)">
            <path id="Path_119" data-name="Path 119" d="M405.271,437.726c4.091-32.955,11.28-68.968,11.376-69.449a.908.908,0,1,0-1.781-.358c-.1.484-7.325,36.7-11.426,69.807Z" transform="translate(-403.44 -367.189)" fill="#0050db"/>
          </g>
        </g>
        <g id="Group_48" data-name="Group 48" transform="translate(12.08)">
          <path id="Path_120" data-name="Path 120" d="M449.2,440.991c-.072-.271-.151-.541-.242-.813-9.484-27.791,10.37-21.509,18.128-36.358,8.509-16.292-10.576-12.145,1.169-33.859,15.919-29.426,5.622-48.783-7.087-32.823-11.99,15.055-10.423,23.1-31.309,30.929-17.32,6.488,2.553,30.733-16.438,43.436-8.095,5.414-11.066,13.829-11.81,21.7a26.274,26.274,0,0,0,.4,7.784Z" transform="translate(-401.482 -331.395)" fill="#00a8ff"/>
          <g id="Group_47" data-name="Group 47" transform="translate(16.598 29.955)">
            <path id="Path_121" data-name="Path 121" d="M419.241,438.487c16.639-38.1,37.113-77.39,37.4-77.932a1.168,1.168,0,0,0-2.07-1.082c-.287.549-21.117,40.53-37.874,79.015Z" transform="translate(-416.693 -358.846)" fill="#007fe9"/>
          </g>
        </g>
      </g>
      <g id="Group_54" data-name="Group 54" transform="translate(0 48.422)">
        <g id="Group_51" data-name="Group 51" transform="translate(43.517 13.786)">
          <path id="Path_122" data-name="Path 122" d="M115.42,435.041a20.608,20.608,0,0,1-1.535,4.8H77.863c-1.419-3.379-1.414-6.9.684-9.889,13.125-18.691-3.067-18.316-5.632-31.092-2.812-14.016,10.539-6.77,6.489-25.539-5.489-25.435,6.41-37.65,12.43-22.969,5.68,13.85,2.76,19.52,16.654,29.9,11.522,8.611-8.589,22.394,2.831,36.009C116.188,422.067,116.576,429,115.42,435.041Z" transform="translate(-72.523 -344.028)" fill="#007fe9"/>
          <g id="Group_50" data-name="Group 50" transform="translate(16.001 25.274)">
            <path id="Path_123" data-name="Path 123" d="M98.58,437.726C94.489,404.771,87.3,368.758,87.2,368.277a.908.908,0,1,1,1.781-.358c.1.484,7.325,36.7,11.426,69.807Z" transform="translate(-87.187 -367.189)" fill="#0050db"/>
          </g>
        </g>
        <g id="Group_53" data-name="Group 53">
          <path id="Path_124" data-name="Path 124" d="M59.809,440.991c.073-.271.152-.541.243-.813,9.484-27.791-10.37-21.509-18.128-36.358-8.509-16.292,10.576-12.145-1.169-33.859-15.919-29.426-5.622-48.783,7.087-32.823,11.99,15.055,10.423,23.1,31.309,30.929C96.47,374.556,76.6,398.8,95.59,411.5c8.095,5.414,11.065,13.829,11.81,21.7a26.237,26.237,0,0,1-.4,7.784Z" transform="translate(-32.644 -331.395)" fill="#00a8ff"/>
          <g id="Group_52" data-name="Group 52" transform="translate(18.203 29.955)">
            <path id="Path_125" data-name="Path 125" d="M86.855,438.487c-16.639-38.1-37.113-77.39-37.4-77.932a1.168,1.168,0,0,1,2.07-1.082c.287.549,21.117,40.53,37.874,79.015Z" transform="translate(-49.326 -358.846)" fill="#007fe9"/>
          </g>
        </g>
      </g>
      <path id="Path_126" data-name="Path 126" d="M157.442,441.169h2.738l-4.208-11.787a55.478,55.478,0,0,1,7.56-21.032c7.822-13.053,9.827-22.3,3.278-22.248-8.5.067-14.585,20.731-12.809,37.757L143.984,395.8c.407-3.629,1.894-10.565,7.174-19.286,6.987-11.54,12.38-25.073,3.782-24.337-8.629.738-14.822,21.517-12.7,38.747l-8.353-23.4a30.344,30.344,0,0,1,4.525-12.2c4.4-7.273,7.8-15.8,2.383-15.339-5.453.467-9.363,13.635-7.99,24.512l-1.769-4.954c-1.623-14.954-11.936-31.506-18.237-30.127s-.124,10.878,8.039,19.324a48.533,48.533,0,0,1,7.331,10.44l3.437,9.628c-6.137-7.485-15.124-12.856-19.019-10.189-4.487,3.073,3.544,7.522,11.557,10.362a33.382,33.382,0,0,1,9.266,4.881l10.6,29.705c-9.647-13.339-25.744-23.641-32.417-19.072-7.12,4.876,5.623,11.935,18.339,16.441a50.681,50.681,0,0,1,16.4,9.127l8.257,23.132c-9.308-14.576-27.108-26.581-34.216-21.714S126,423.41,138.717,427.917c9.491,3.364,15.015,7.724,17.668,10.289Z" transform="translate(-25.629 -283.162)" fill="#00a8ff"/>
      <path id="Path_127" data-name="Path 127" d="M343.039,389.089l-2.693-.5,6.28-10.827a55.481,55.481,0,0,0-3.611-22.056c-5.32-14.257-5.611-23.714.82-22.472,8.341,1.61,10.575,23.037,5.733,39.456l14.951-25.772c.26-3.644.058-10.734-3.55-20.269-4.773-12.617-7.617-26.9.7-24.619,8.351,2.294,10.664,23.852,5.443,40.409l12.467-21.493a30.369,30.369,0,0,0-2.233-12.821c-3.008-7.952-4.8-16.957.444-15.516,5.277,1.449,6.73,15.109,3.4,25.555l2.64-4.551c4.315-14.408,17.464-28.81,23.411-26.309s-1.856,10.719-11.419,17.541a48.558,48.558,0,0,0-9.106,8.933l-5.129,8.843c7.394-6.245,17.208-9.893,20.553-6.563C406,319.9,397.3,322.813,388.9,324.15a33.381,33.381,0,0,0-10,3.115l-15.826,27.284c11.91-11.364,29.611-18.569,35.342-12.863,6.116,6.089-7.7,10.714-21.021,12.835a50.652,50.652,0,0,0-17.782,6L347.29,381.76c11.8-12.642,31.488-21.212,37.592-15.134s-7.7,10.715-21.021,12.835c-9.945,1.583-16.17,4.866-19.244,6.906Z" transform="translate(-4.699 -287.021)" fill="#00a8ff"/>
    </g>
    <g id="Group_59" data-name="Group 59" transform="translate(249.566 487.028)">
      <rect id="Rectangle_205" data-name="Rectangle 205" width="86.628" height="125.409" transform="matrix(0.001, -1, 1, 0.001, 0, 86.628)" fill="#ffaa01"/>
      <path id="Path_128" data-name="Path 128" d="M356.633,358.62l-.008,5.553-62.78,55.483-62.624-55.664.008-5.554,62.62,55.854Z" transform="translate(-231.104 -358.436)" fill="#f88800"/>
      <g id="Group_56" data-name="Group 56" transform="translate(0 41.866)">
        <path id="Path_129" data-name="Path 129" d="M281.8,399.841,234.746,441.57l-3.632-.005,0-2.208L279.1,396.8Z" transform="translate(-231.114 -396.802)" fill="#f88800"/>
      </g>
      <g id="Group_58" data-name="Group 58" transform="translate(74.517 41.908)">
        <g id="Group_57" data-name="Group 57">
          <path id="Path_130" data-name="Path 130" d="M350.3,439.827l0,1.915-3.961-.006L299.4,399.872l2.706-3.031Z" transform="translate(-299.402 -396.841)" fill="#f88800"/>
        </g>
      </g>
      <path id="Path_131" data-name="Path 131" d="M231.225,358.436l62.624,55.858,62.785-55.678Z" transform="translate(-231.103 -358.436)" fill="#fdcc50"/>
    </g>
    <g id="Group_65" data-name="Group 65" transform="translate(260.153 0.043)">
      <g id="Group_62" data-name="Group 62" transform="translate(33.717 14.839)">
        <g id="Group_60" data-name="Group 60">
          <path id="Path_132" data-name="Path 132" d="M276.674,86.934a.739.739,0,0,1-.366-.055c-1.271-.536-2.015-.786-2.023-.789a.743.743,0,0,1,.471-1.41c.032.011.8.268,2.129.829a.743.743,0,0,1-.212,1.424Z" transform="translate(-273.778 -84.642)" fill="#dcedf9"/>
        </g>
        <g id="Group_61" data-name="Group 61" transform="translate(6.073 2.679)">
          <path id="Path_133" data-name="Path 133" d="M311.146,123.356c.505,1.348.978,2.739,1.407,4.134a.744.744,0,0,0,.788.521.716.716,0,0,0,.141-.028.743.743,0,0,0,.492-.929c-.437-1.423-.92-2.843-1.436-4.219a.743.743,0,1,0-1.391.522Z" transform="translate(-276.447 -83.881)" fill="#dcedf9"/>
          <path id="Path_134" data-name="Path 134" d="M313.494,130.995c.34,1.4.649,2.834.915,4.273a.742.742,0,0,0,.808.6l.059-.008a.744.744,0,0,0,.595-.866c-.272-1.467-.585-2.931-.932-4.354a.743.743,0,0,0-1.445.351Z" transform="translate(-276.23 -83.176)" fill="#dcedf9"/>
          <path id="Path_135" data-name="Path 135" d="M316.436,151.979a.745.745,0,0,0,.665-.728c.022-1.491.012-2.988-.033-4.448a.743.743,0,1,0-1.485.045c.044,1.438.053,2.911.032,4.38a.742.742,0,0,0,.731.754A.621.621,0,0,0,316.436,151.979Z" transform="translate(-276.038 -81.716)" fill="#dcedf9"/>
          <path id="Path_136" data-name="Path 136" d="M315.594,138.028a.742.742,0,0,0-.641.833c.086.672.167,1.351.237,2.018.081.77.154,1.556.215,2.334a.742.742,0,0,0,.8.683l.02,0a.742.742,0,0,0,.662-.8c-.062-.792-.135-1.591-.218-2.373-.071-.68-.152-1.371-.241-2.054a.743.743,0,0,0-.814-.644Z" transform="translate(-276.096 -82.452)" fill="#dcedf9"/>
          <path id="Path_137" data-name="Path 137" d="M309.789,119.991a.745.745,0,0,0,.756.435.765.765,0,0,0,.226-.061.744.744,0,0,0,.375-.982c-.606-1.353-1.261-2.7-1.949-4.01a.743.743,0,0,0-1.316.692C308.554,117.345,309.2,118.665,309.789,119.991Z" transform="translate(-276.748 -84.554)" fill="#dcedf9"/>
          <path id="Path_138" data-name="Path 138" d="M279.748,88.5c1.277.653,2.564,1.363,3.828,2.111a.744.744,0,0,0,.757-1.28c-1.29-.764-2.6-1.488-3.909-2.155a.743.743,0,0,0-.677,1.324Z" transform="translate(-279.343 -87.097)" fill="#dcedf9"/>
          <path id="Path_139" data-name="Path 139" d="M290.188,95.124a.743.743,0,0,0,.9-1.181c-1.176-.9-2.4-1.773-3.622-2.6a.743.743,0,0,0-.831,1.232C287.839,93.385,289.034,94.243,290.188,95.124Z" transform="translate(-278.708 -86.721)" fill="#dcedf9"/>
          <path id="Path_140" data-name="Path 140" d="M296.218,100.382a.744.744,0,1,0,1.038-1.065c-1.057-1.028-2.164-2.042-3.29-3.012a.743.743,0,0,0-.97,1.126C294.1,98.382,295.183,99.375,296.218,100.382Z" transform="translate(-278.121 -86.273)" fill="#dcedf9"/>
          <path id="Path_141" data-name="Path 141" d="M301.561,106.33a.743.743,0,1,0,1.16-.929c-.923-1.153-1.9-2.295-2.9-3.393a.743.743,0,0,0-1.1,1C299.7,104.083,300.657,105.2,301.561,106.33Z" transform="translate(-277.593 -85.759)" fill="#dcedf9"/>
          <path id="Path_142" data-name="Path 142" d="M306.112,112.9a.746.746,0,0,0,.713.352.759.759,0,0,0,.309-.1.744.744,0,0,0,.247-1.022c-.77-1.264-1.593-2.519-2.443-3.73a.743.743,0,1,0-1.217.853C304.552,110.433,305.357,111.662,306.112,112.9Z" transform="translate(-277.132 -85.183)" fill="#dcedf9"/>
        </g>
      </g>
      <g id="Group_64" data-name="Group 64">
        <g id="Group_63" data-name="Group 63">
          <path id="Path_143" data-name="Path 143" d="M279.478,83.089l3.252-12.046-39.851.342Z" transform="translate(-242.879 -71.043)" fill="#fdcc50"/>
          <path id="Path_144" data-name="Path 144" d="M242.879,71.356l34.665,14.613.091.04,1.491,2.47.351-5.418Z" transform="translate(-242.879 -71.015)" fill="#ffaa01"/>
          <path id="Path_145" data-name="Path 145" d="M276.367,87.254l-3.231-.509,1.74-1.961Z" transform="translate(-240.119 -69.79)" fill="#f88800"/>
          <path id="Path_146" data-name="Path 146" d="M273.274,84.169l4.363,1.839L268.653,96.13,242.879,71.357Z" transform="translate(-242.879 -71.015)" fill="#fdcc50"/>
        </g>
      </g>
    </g>
    <g id="Group_125" data-name="Group 125" transform="translate(58.211 103.885)">
      <g id="Group_87" data-name="Group 87" transform="translate(402.976 7.089)">
        <g id="Group_66" data-name="Group 66" transform="translate(28.731 46.126)">
          <path id="Path_147" data-name="Path 147" d="M457.394,149.906a5.788,5.788,0,1,1-5.789,5.789A5.8,5.8,0,0,1,457.394,149.906Zm0,9.761a3.973,3.973,0,1,0-3.973-3.972A3.978,3.978,0,0,0,457.394,159.667Z" transform="translate(-451.605 -149.906)" fill="#00a8ff"/>
        </g>
        <g id="Group_67" data-name="Group 67" transform="translate(7.893 25.818)">
          <path id="Path_148" data-name="Path 148" d="M438.3,131.3a5.788,5.788,0,1,1-5.788,5.788A5.795,5.795,0,0,1,438.3,131.3Zm0,9.761a3.973,3.973,0,1,0-3.972-3.973A3.977,3.977,0,0,0,438.3,141.057Z" transform="translate(-432.509 -131.296)" fill="#ffaa01"/>
        </g>
        <g id="Group_74" data-name="Group 74">
          <g id="Group_70" data-name="Group 70" transform="translate(5.621)">
            <g id="Group_68" data-name="Group 68" transform="translate(0 7.007)">
              <path id="Path_149" data-name="Path 149" d="M431.335,114.057a.908.908,0,0,1,.908.909v4a.908.908,0,0,1-1.816,0v-4A.909.909,0,0,1,431.335,114.057Z" transform="translate(-430.427 -114.057)" fill="#00a8ff"/>
            </g>
            <g id="Group_69" data-name="Group 69">
              <path id="Path_150" data-name="Path 150" d="M431.335,107.636a.907.907,0,0,1,.908.908v4a.908.908,0,1,1-1.816,0v-4A.908.908,0,0,1,431.335,107.636Z" transform="translate(-430.427 -107.636)" fill="#00a8ff"/>
            </g>
          </g>
          <g id="Group_73" data-name="Group 73" transform="translate(0 5.505)">
            <g id="Group_71" data-name="Group 71">
              <path id="Path_151" data-name="Path 151" d="M426.185,112.681h3.6a.908.908,0,0,1,0,1.817h-3.6a.908.908,0,1,1,0-1.817Z" transform="translate(-425.276 -112.681)" fill="#00a8ff"/>
            </g>
            <g id="Group_72" data-name="Group 72" transform="translate(7.645)">
              <path id="Path_152" data-name="Path 152" d="M433.19,112.681h3.6a.908.908,0,0,1,0,1.817h-3.6a.908.908,0,0,1,0-1.817Z" transform="translate(-432.282 -112.681)" fill="#00a8ff"/>
            </g>
          </g>
        </g>
        <g id="Group_86" data-name="Group 86" transform="translate(31.964 22.438)">
          <g id="Group_85" data-name="Group 85">
            <g id="Group_79" data-name="Group 79" transform="translate(5.62)">
              <g id="Group_76" data-name="Group 76" transform="translate(0 7.008)">
                <g id="Group_75" data-name="Group 75">
                  <path id="Path_153" data-name="Path 153" d="M460.627,134.62a.908.908,0,0,1,.908.908v4a.908.908,0,0,1-1.817,0v-4A.908.908,0,0,1,460.627,134.62Z" transform="translate(-459.718 -134.62)" fill="#ffaa01"/>
                </g>
              </g>
              <g id="Group_78" data-name="Group 78">
                <g id="Group_77" data-name="Group 77">
                  <path id="Path_154" data-name="Path 154" d="M460.627,128.2a.908.908,0,0,1,.908.908v4a.908.908,0,1,1-1.817,0v-4A.908.908,0,0,1,460.627,128.2Z" transform="translate(-459.718 -128.198)" fill="#ffaa01"/>
                </g>
              </g>
            </g>
            <g id="Group_84" data-name="Group 84" transform="translate(0 5.506)">
              <g id="Group_81" data-name="Group 81">
                <g id="Group_80" data-name="Group 80">
                  <path id="Path_155" data-name="Path 155" d="M455.476,133.244h3.6a.908.908,0,1,1,0,1.816h-3.6a.908.908,0,0,1,0-1.816Z" transform="translate(-454.568 -133.244)" fill="#ffaa01"/>
                </g>
              </g>
              <g id="Group_83" data-name="Group 83" transform="translate(7.644)">
                <g id="Group_82" data-name="Group 82">
                  <path id="Path_156" data-name="Path 156" d="M462.481,133.244h3.6a.908.908,0,1,1,0,1.816h-3.6a.908.908,0,1,1,0-1.816Z" transform="translate(-461.573 -133.244)" fill="#ffaa01"/>
                </g>
              </g>
            </g>
          </g>
        </g>
      </g>
      <g id="Group_115" data-name="Group 115" transform="translate(-29.334 -131.943)">
        <g id="Group_90" data-name="Group 90" transform="translate(61.638 49.072)">
          <g id="Group_89" data-name="Group 89">
            <g id="Group_88" data-name="Group 88">
              <path id="Path_157" data-name="Path 157" d="M106.475,122.981A11.918,11.918,0,1,1,94.556,134.9,11.931,11.931,0,0,1,106.475,122.981Zm0,3.739a8.179,8.179,0,1,0,8.181,8.178A8.188,8.188,0,0,0,106.475,126.72Z" transform="translate(-94.556 -122.981)" fill="#00a8ff"/>
            </g>
          </g>
        </g>
        <g id="Group_94" data-name="Group 94" transform="translate(18.233 9.702)">
          <g id="Group_93" data-name="Group 93">
            <g id="Group_92" data-name="Group 92">
              <g id="Group_91" data-name="Group 91">
                <path id="Path_158" data-name="Path 158" d="M87.154,105.458a11.919,11.919,0,1,1-11.917,11.919A11.933,11.933,0,0,1,87.154,105.458Zm0,3.741a8.179,8.179,0,1,0,8.181,8.178A8.188,8.188,0,0,0,87.154,109.2Z" transform="translate(-75.237 -105.458)" fill="#ffaa01"/>
              </g>
            </g>
          </g>
        </g>
        <g id="Group_101" data-name="Group 101" transform="translate(0 64.388)">
          <g id="Group_97" data-name="Group 97" transform="translate(0 11.571)">
            <g id="Group_95" data-name="Group 95" transform="translate(14.427)">
              <path id="Path_159" data-name="Path 159" d="M73.543,136.817a1.871,1.871,0,0,0,1.869,1.872h8.246a1.87,1.87,0,0,0,0-3.741H75.412A1.871,1.871,0,0,0,73.543,136.817Z" transform="translate(-73.543 -134.948)" fill="#00a8ff"/>
            </g>
            <g id="Group_96" data-name="Group 96">
              <path id="Path_160" data-name="Path 160" d="M67.122,136.817a1.87,1.87,0,0,0,1.869,1.872h8.243a1.87,1.87,0,0,0,0-3.741H68.991A1.869,1.869,0,0,0,67.122,136.817Z" transform="translate(-67.122 -134.948)" fill="#00a8ff"/>
            </g>
          </g>
          <g id="Group_100" data-name="Group 100" transform="translate(11.335)">
            <g id="Group_98" data-name="Group 98">
              <path id="Path_161" data-name="Path 161" d="M72.167,131.667v7.405a1.869,1.869,0,0,0,3.739,0v-7.405a1.869,1.869,0,1,0-3.739,0Z" transform="translate(-72.167 -129.798)" fill="#00a8ff"/>
            </g>
            <g id="Group_99" data-name="Group 99" transform="translate(0 15.739)">
              <path id="Path_162" data-name="Path 162" d="M72.167,138.672v7.405a1.869,1.869,0,0,0,3.739,0v-7.405a1.869,1.869,0,0,0-3.739,0Z" transform="translate(-72.167 -136.803)" fill="#00a8ff"/>
            </g>
          </g>
        </g>
        <g id="Group_114" data-name="Group 114" transform="translate(87.306)">
          <g id="Group_113" data-name="Group 113">
            <g id="Group_107" data-name="Group 107" transform="translate(0 11.571)">
              <g id="Group_103" data-name="Group 103" transform="translate(14.429)">
                <g id="Group_102" data-name="Group 102">
                  <path id="Path_163" data-name="Path 163" d="M112.4,108.162a1.869,1.869,0,0,0,1.869,1.869h8.243a1.87,1.87,0,0,0,0-3.741h-8.243A1.87,1.87,0,0,0,112.4,108.162Z" transform="translate(-112.402 -106.29)" fill="#ffaa01"/>
                </g>
              </g>
              <g id="Group_106" data-name="Group 106">
                <g id="Group_105" data-name="Group 105">
                  <g id="Group_104" data-name="Group 104">
                    <path id="Path_164" data-name="Path 164" d="M105.98,108.162a1.869,1.869,0,0,0,1.869,1.869h8.243a1.87,1.87,0,0,0,0-3.741h-8.243A1.87,1.87,0,0,0,105.98,108.162Z" transform="translate(-105.98 -106.29)" fill="#ffaa01"/>
                  </g>
                </g>
              </g>
            </g>
            <g id="Group_112" data-name="Group 112" transform="translate(11.335)">
              <g id="Group_109" data-name="Group 109">
                <g id="Group_108" data-name="Group 108">
                  <path id="Path_165" data-name="Path 165" d="M111.025,103.009v7.405a1.87,1.87,0,0,0,3.741,0v-7.405a1.87,1.87,0,0,0-3.741,0Z" transform="translate(-111.025 -101.14)" fill="#ffaa01"/>
                </g>
              </g>
              <g id="Group_111" data-name="Group 111" transform="translate(0 15.739)">
                <g id="Group_110" data-name="Group 110">
                  <path id="Path_166" data-name="Path 166" d="M111.025,110.014v7.405a1.87,1.87,0,0,0,3.741,0v-7.405a1.87,1.87,0,0,0-3.741,0Z" transform="translate(-111.025 -108.145)" fill="#ffaa01"/>
                </g>
              </g>
            </g>
          </g>
        </g>
      </g>
      <g id="Group_120" data-name="Group 120" transform="translate(0 76.394)">
        <g id="Group_118" data-name="Group 118" transform="translate(-51.637 -1.637)">
          <g id="Group_117" data-name="Group 117">
            <g id="Group_116" data-name="Group 116">
              <rect id="Rectangle_206" data-name="Rectangle 206" width="66.818" height="66.818" rx="4.264" fill="#ffaa01"/>
            </g>
          </g>
        </g>
        <g id="Group_119" data-name="Group 119" transform="matrix(-0.259, 0.966, -0.966, -0.259, 7.459, 18.185)">
          <path id="Path_167" data-name="Path 167" d="M38.008,8.4c-.111-.46-.22-.922-.334-1.382A10.317,10.317,0,0,0,35.405,2.7,10.566,10.566,0,0,0,32.691.439a3.1,3.1,0,0,0-4.059.791Q25.84,4.6,23.077,8a3.21,3.21,0,0,0,.454,4.536c1,.888,2.061,1.715,3.1,2.563a4.037,4.037,0,0,0,.4.265,29.789,29.789,0,0,1-12.673,15.47c-.728-.605-1.493-1.245-2.258-1.878-.391-.323-.779-.651-1.182-.959a3.193,3.193,0,0,0-3.868-.2,4.9,4.9,0,0,0-1.03,1.016C4.336,30.847,2.677,32.9.99,34.928A4.28,4.28,0,0,0,0,37.1l.088.9a6.9,6.9,0,0,0,.9,1.513,11.575,11.575,0,0,0,3.362,2.44,9.474,9.474,0,0,0,4.75.953,17.994,17.994,0,0,0,3.245-.619,25.945,25.945,0,0,0,7.53-3.634,39.522,39.522,0,0,0,6.348-5.375,64.3,64.3,0,0,0,7.022-8.771,31.916,31.916,0,0,0,4.013-7.858,17.908,17.908,0,0,0,.879-4.376c.04-.6.054-1.207.08-1.81Q38.111,9.441,38.008,8.4Z" fill="#fff"/>
        </g>
      </g>
      <g id="Group_124" data-name="Group 124" transform="translate(392.474 224.223)">
        <g id="Group_122" data-name="Group 122">
          <g id="Group_121" data-name="Group 121">
            <rect id="Rectangle_207" data-name="Rectangle 207" width="25.931" height="25.931" rx="3.4" fill="#ffaa01"/>
          </g>
        </g>
        <g id="Group_123" data-name="Group 123" transform="translate(4.679 5.145)">
          <path id="Path_168" data-name="Path 168" d="M436.512,318.665c0,3.233-1.811,4.909-3.977,4.909a2.725,2.725,0,0,1-2.675-1.473,2.635,2.635,0,0,1-2.573,1.473c-1.828,0-3.588-1.608-3.588-4.214s1.709-4.2,3.588-4.2a2.678,2.678,0,0,1,2.083.83v-.679h3.25v4.843c0,.71.288.93.66.93.475,0,.863-.474.863-2.369,0-3.064-2.286-5.231-5.773-5.231a5.518,5.518,0,0,0-5.806,5.655,5.442,5.442,0,0,0,5.739,5.686,8.145,8.145,0,0,0,3.42-.744l.71,2.083a10.3,10.3,0,0,1-4.13.812c-5.1,0-8.363-3.4-8.363-7.837,0-4.368,3.267-7.8,8.431-7.8C433.245,311.335,436.512,314.6,436.512,318.665Zm-7.075.7c0-1.016-.525-1.541-1.218-1.541s-1.2.525-1.2,1.541c0,1.032.507,1.556,1.2,1.556S429.437,320.392,429.437,319.36Z" transform="translate(-419.94 -311.335)" fill="#fff"/>
        </g>
      </g>
    </g>
    <g id="Group_132" data-name="Group 132" transform="translate(172.348 76.226)">
      <g id="Group_127" data-name="Group 127" transform="translate(0 66.542)">
        <path id="Path_169" data-name="Path 169" d="M448.84,181.6v82.728a13.993,13.993,0,0,1-13.993,13.993H236.653V136.871h167.46A44.723,44.723,0,0,1,448.84,181.6Z" transform="translate(-153.642 -136.764)" fill="#00a8ff"/>
        <path id="Path_170" data-name="Path 170" d="M446.122,237.617v17.518a13.993,13.993,0,0,1-13.993,13.993H266.452V237.617Z" transform="translate(-150.924 -127.575)" fill="#28baff"/>
        <path id="Path_171" data-name="Path 171" d="M286.966,176.73v101.6H197.355V176.73a39.956,39.956,0,0,1,39.957-39.957h9.943A39.956,39.956,0,0,1,286.966,176.73Z" transform="translate(-157.226 -136.773)" fill="#007fe9"/>
        <path id="Path_172" data-name="Path 172" d="M286.134,176.73v101.6H206.467V176.73a39.958,39.958,0,0,1,39.71-39.957h.247A39.956,39.956,0,0,1,286.134,176.73Z" transform="translate(-156.395 -136.773)" fill="#0050db"/>
        <g id="Group_126" data-name="Group 126" transform="translate(0 135.747)">
          <path id="Path_173" data-name="Path 173" d="M200.707,266.492l-34.123,60.082c-12.535,22.07-4.8,39.957,17.263,39.957h9.943c22.033-.134,49.916-17.969,62.4-39.957l34.124-60.082Z" transform="translate(-160.581 -260.688)" fill="#007fe9"/>
          <rect id="Rectangle_208" data-name="Rectangle 208" width="89.611" height="5.805" transform="translate(40.129)" fill="#007fe9"/>
        </g>
      </g>
      <g id="Group_130" data-name="Group 130" transform="translate(209.007)">
        <g id="Group_128" data-name="Group 128" transform="translate(0 85.566)">
          <circle id="Ellipse_4" data-name="Ellipse 4" cx="14.367" cy="14.367" r="14.367" transform="translate(0 2.737)" fill="#007fe9"/>
          <circle id="Ellipse_5" data-name="Ellipse 5" cx="14.367" cy="14.367" r="14.367" fill="#2e3052"/>
          <path id="Path_174" data-name="Path 174" d="M365.982,176.417a8.347,8.347,0,1,1,8.347-8.347A8.356,8.356,0,0,1,365.982,176.417Z" transform="translate(-351.614 -153.703)" fill="#524e84"/>
        </g>
        <g id="Group_129" data-name="Group 129" transform="translate(11.964)">
          <path id="Path_175" data-name="Path 175" d="M367.889,79.289V175.11a2.4,2.4,0,0,1-4.808,0V79.289Z" transform="translate(-363.081 -75.474)" fill="#ffaa01"/>
          <path id="Path_176" data-name="Path 176" d="M402,97.466H363.081V75.793H402L393.154,86.63Z" transform="translate(-363.081 -75.793)" fill="#2e3052"/>
          <path id="Path_177" data-name="Path 177" d="M367.889,95.654v1.305l-4.808,1.68V95.654Z" transform="translate(-363.081 -73.981)" fill="#f88800"/>
        </g>
      </g>
      <g id="Group_131" data-name="Group 131" transform="translate(136.899 208.12)">
        <rect id="Rectangle_209" data-name="Rectangle 209" width="19.158" height="285.692" transform="translate(32.89)" fill="#007fe9"/>
        <path id="Rectangle_210" data-name="Rectangle 210" d="M10.7,0H74.232a10.7,10.7,0,0,1,10.7,10.7v5.131a0,0,0,0,1,0,0H0a0,0,0,0,1,0,0V10.7A10.7,10.7,0,0,1,10.7,0Z" transform="translate(0 273.655)" fill="#00a8ff"/>
        <path id="Path_178" data-name="Path 178" d="M335.334,266.516v4.945l-19.158,6.705V266.516Z" transform="translate(-283.287 -266.516)" fill="#0050db"/>
      </g>
    </g>
    <g id="Group_180" data-name="Group 180" transform="translate(59.115 112)">
      <g id="Group_179" data-name="Group 179">
        <path id="Path_179" data-name="Path 179" d="M174.244,217.75c9.129,33.21,39.208,42.483,39.208,42.483a90.358,90.358,0,0,0,26.987-10.245c-2.223-5.324-3.186-10.731-4.42-17.757-11.078,3.082-20.644,4.729-20.644,4.729-23.385-10.839-37.567-62.719-37.567-62.719C163.909,187.435,174.244,217.75,174.244,217.75Z" transform="translate(-71.275 -82.199)" fill="#007fe9"/>
        <g id="Group_139" data-name="Group 139" transform="translate(0 402.408)">
          <path id="Path_180" data-name="Path 180" d="M119.9,395.663,110.011,408.9s1.807,5.917,9.133,10.476l11.833-15.228Z" transform="translate(-95.593 -395.663)" fill="#fba691"/>
          <g id="Group_138" data-name="Group 138" transform="translate(0 11.062)">
            <g id="Group_133" data-name="Group 133">
              <path id="Path_181" data-name="Path 181" d="M121.634,412.1s4.628-1,6.212.6,5.558,23.37,9.276,28.133-.025,7.294-2.314,8.259-35.083-31.8-35.083-31.8,8.107-11.2,12.017-13.376S117.484,409.8,121.634,412.1Z" transform="translate(-99.725 -403.555)" fill="#ffaa01"/>
            </g>
            <g id="Group_137" data-name="Group 137" transform="translate(21.439 15.026)">
              <g id="Group_134" data-name="Group 134" transform="translate(0.54 3.483)">
                <path id="Path_182" data-name="Path 182" d="M115.946,419.5a.835.835,0,0,1-.475-.467.88.88,0,0,1,.45-1.133c.143-.063,3.529-1.543,6.238-1.043a5.761,5.761,0,0,1,4.536,3.89.875.875,0,0,1-.579,1.07.825.825,0,0,1-1.036-.582,4.1,4.1,0,0,0-3.237-2.681c-2.206-.408-5.244.915-5.275.929A.82.82,0,0,1,115.946,419.5Z" transform="translate(-115.406 -416.759)" fill="#fff"/>
              </g>
              <g id="Group_135" data-name="Group 135">
                <path id="Path_183" data-name="Path 183" d="M115.56,417.02a.835.835,0,0,1-.474-.465.877.877,0,0,1,.449-1.133c.143-.064,3.531-1.545,6.239-1.044a5.757,5.757,0,0,1,4.536,3.89.877.877,0,0,1-.579,1.071.826.826,0,0,1-1.036-.583,4.107,4.107,0,0,0-3.237-2.681c-2.216-.409-5.244.915-5.275.929A.817.817,0,0,1,115.56,417.02Z" transform="translate(-115.02 -414.274)" fill="#fff"/>
              </g>
              <g id="Group_136" data-name="Group 136" transform="translate(2.056 7.149)">
                <path id="Path_184" data-name="Path 184" d="M117.027,422.12a.835.835,0,0,1-.474-.465.88.88,0,0,1,.45-1.134c.143-.063,3.529-1.543,6.238-1.043a5.751,5.751,0,0,1,4.536,3.888.875.875,0,0,1-.578,1.071.824.824,0,0,1-1.036-.582,4.11,4.11,0,0,0-3.238-2.683c-2.216-.408-5.244.915-5.273.929A.815.815,0,0,1,117.027,422.12Z" transform="translate(-116.487 -419.374)" fill="#fff"/>
              </g>
            </g>
          </g>
        </g>
        <g id="Group_146" data-name="Group 146" transform="translate(83.296 424.028)">
          <path id="Path_185" data-name="Path 185" d="M160.364,412.19l1.5,16.456s5.3,3.187,13.8,1.675l-1.392-19.234Z" transform="translate(-158.663 -411.087)" fill="#fba691"/>
          <g id="Group_145" data-name="Group 145" transform="translate(0 13.048)">
            <g id="Group_140" data-name="Group 140">
              <path id="Path_186" data-name="Path 186" d="M173.15,424.269s2.893-4.006,5.24-3.87,20.634,14.251,26.845,15.349,5.074,5.677,3.972,8.023-49.187,1-49.187,1-1.772-15.522-.258-19.941S168.32,425.379,173.15,424.269Z" transform="translate(-159.15 -420.396)" fill="#ffaa01"/>
            </g>
            <g id="Group_144" data-name="Group 144" transform="translate(22.133 5.233)">
              <g id="Group_141" data-name="Group 141" transform="translate(2.638 2.338)">
                <path id="Path_187" data-name="Path 187" d="M177.952,432.581a.83.83,0,0,1-.663-.056.878.878,0,0,1-.377-1.158c.07-.14,1.734-3.441,4.139-4.784a5.765,5.765,0,0,1,5.974.1.875.875,0,0,1,.237,1.194.825.825,0,0,1-1.169.212,4.105,4.105,0,0,0-4.2,0c-1.96,1.095-3.454,4.051-3.469,4.08A.809.809,0,0,1,177.952,432.581Z" transform="translate(-176.823 -425.797)" fill="#fff"/>
              </g>
              <g id="Group_142" data-name="Group 142">
                <path id="Path_188" data-name="Path 188" d="M176.07,430.915a.831.831,0,0,1-.663-.056.88.88,0,0,1-.377-1.159c.07-.14,1.734-3.441,4.138-4.784a5.761,5.761,0,0,1,5.975.1.875.875,0,0,1,.237,1.193.824.824,0,0,1-1.169.212,4.108,4.108,0,0,0-4.2,0c-1.967,1.1-3.454,4.049-3.468,4.08A.82.82,0,0,1,176.07,430.915Z" transform="translate(-174.941 -424.129)" fill="#fff"/>
              </g>
              <g id="Group_143" data-name="Group 143" transform="translate(6.144 4.191)">
                <path id="Path_189" data-name="Path 189" d="M180.452,433.906a.831.831,0,0,1-.663-.056.879.879,0,0,1-.376-1.159c.069-.14,1.734-3.441,4.138-4.784a5.757,5.757,0,0,1,5.974.1.874.874,0,0,1,.237,1.193.825.825,0,0,1-1.169.213,4.106,4.106,0,0,0-4.2,0c-1.967,1.1-3.454,4.051-3.468,4.08A.815.815,0,0,1,180.452,433.906Z" transform="translate(-179.324 -427.119)" fill="#fff"/>
              </g>
            </g>
          </g>
        </g>
        <g id="Group_147" data-name="Group 147" transform="translate(17.724 245.717)">
          <path id="Path_190" data-name="Path 190" d="M169.2,284.681l-9.993,82.7A276.46,276.46,0,0,0,141.7,395.115c-7.172,13.065-26.286,46.965-26.286,46.965l11.56,8.812,63.315-65.612,16.855-101.4Z" transform="translate(-111.149 -283.876)" fill="#001030"/>
          <path id="Path_191" data-name="Path 191" d="M131.042,406.223A12.766,12.766,0,0,1,125.8,412.1L112.37,400.76a20.245,20.245,0,0,1,4.575-6.21Z" transform="translate(-112.37 -239.419)" fill="#2e3052"/>
        </g>
        <g id="Group_148" data-name="Group 148" transform="translate(24.643 246.495)">
          <path id="Path_192" data-name="Path 192" d="M117.306,287.876s17.83,43.837,41,78.02c0,0,3.459,33.268,9.379,50.978,2.59,7.754,7.61,44.494,7.61,44.494l17.579-.8L188.34,358.418l-18.595-73.987Z" transform="translate(-117.306 -284.431)" fill="#2e3052"/>
          <path id="Path_193" data-name="Path 193" d="M178.489,409.662a14.785,14.785,0,0,1,0,9.122l-20.344.568a23.424,23.424,0,0,1-.842-8.894Z" transform="translate(-101.283 -234.126)" fill="#524e84"/>
        </g>
        <g id="Group_157" data-name="Group 157" transform="translate(24.039 76.137)">
          <g id="Group_152" data-name="Group 152">
            <g id="Group_151" data-name="Group 151">
              <g id="Group_150" data-name="Group 150">
                <g id="Group_149" data-name="Group 149">
                  <path id="Path_194" data-name="Path 194" d="M199.369,178.8c2.651,3.307,7.966,37,8.8,71.2.021.789.038,1.576.06,2.362q.128,5.429.235,10.894.109,5.385.2,10.727c.094,5.818.181,11.547.249,17.066.008.627.013,1.249.021,1.873.064,5.38.116,10.538.154,15.356q.006.946.013,1.873c.056,7.231.091,13.634.1,18.774v0c0,.72,0,1.4,0,2.075,0,3.594-.008,6.445-.035,8.368a180.555,180.555,0,0,1-25.538,4.973c-.223.027-.451.056-.678.081-.383.048-.756.091-1.134.133l-.283.027c-1.477.163-2.946.3-4.428.425a171.037,171.037,0,0,1-21.952.4c-.643-.029-1.28-.064-1.923-.1-.572-.029-1.151-.064-1.731-.107-.258-.014-.52-.031-.781-.052-.491-.034-.971-.073-1.461-.107A178.151,178.151,0,0,1,117,339.375c-.056-4.233-.108-12.861-.125-23.987,0-.61,0-1.228,0-1.854-.013-12.273.035-27.337.181-42.848.013-1.228.025-2.452.042-3.684q.021-2.134.043-4.286c0-.241,0-.485.008-.726.008-.335.013-.67.017-1.009.006-.674.014-1.353.027-2.023.013-.983.025-1.962.043-2.937.008-.743.021-1.486.029-2.229.021-1.477.048-2.955.069-4.424.52-30.794,1.559-59.093,3.538-66.295a5.282,5.282,0,0,1,.572-1.438,9.126,9.126,0,0,1,.764-.98,16.728,16.728,0,0,1,1.28-1.292c3.3-3.036,9.018-6.561,14.82-9.907.674-.39,1.357-.777,2.027-1.163.1-.056,15.763-5.338,15.863-5.4l16.382,1.147S195.474,173.941,199.369,178.8Z" transform="translate(-116.875 -162.894)" fill="#00a8ff"/>
                </g>
              </g>
            </g>
          </g>
          <g id="Group_153" data-name="Group 153" transform="translate(0.268 59.414)">
            <path id="Path_195" data-name="Path 195" d="M133.2,206.137a.854.854,0,0,0-1.529-.521,84.659,84.659,0,0,0-12.9,25.6c-.6,1.919-1.12,3.779-1.571,5.548-.008.743-.021,1.486-.029,2.229-.018.974-.031,1.954-.043,2.937-.013.67-.021,1.348-.027,2.023,0,.339-.008.674-.017,1.009,0,.241,0,.485-.008.726a103.426,103.426,0,0,1,3.332-14.009,82.893,82.893,0,0,1,12.625-25.03.852.852,0,0,0,.172-.512Z" transform="translate(-117.066 -205.281)" fill="#007fe9"/>
          </g>
          <g id="Group_154" data-name="Group 154" transform="translate(18.88 118.634)">
            <path id="Path_196" data-name="Path 196" d="M131.195,278.544h0c17.691-.079,32.79-8.128,42.342-14.868a96.93,96.93,0,0,0,16.652-14.747.851.851,0,1,0-1.3-1.1,95.152,95.152,0,0,1-16.37,14.48c-9.345,6.587-24.1,14.454-41.33,14.529a.852.852,0,0,0,0,1.7Z" transform="translate(-130.344 -247.53)" fill="#007fe9"/>
          </g>
          <g id="Group_155" data-name="Group 155" transform="translate(33.568 144.921)">
            <path id="Path_197" data-name="Path 197" d="M145.422,277.021c15.351,0,30.659-8.748,31.355-9.15a.851.851,0,1,0-.852-1.473c-.181.1-18.193,10.391-34.164,8.738a.842.842,0,0,0-.934.758.851.851,0,0,0,.758.935A37.3,37.3,0,0,0,145.422,277.021Z" transform="translate(-140.823 -266.284)" fill="#007fe9"/>
          </g>
          <g id="Group_156" data-name="Group 156" transform="translate(29.029 9.418)">
            <path id="Path_198" data-name="Path 198" d="M142.326,188.254c14.792-4.1,27.207-16.62,27.77-17.195a.851.851,0,0,0-1.215-1.191c-.146.147-14.756,14.872-30.588,17.546a.851.851,0,0,0,.283,1.678A37.308,37.308,0,0,0,142.326,188.254Z" transform="translate(-137.584 -169.613)" fill="#007fe9"/>
          </g>
        </g>
        <g id="Group_169" data-name="Group 169" transform="translate(40.541)">
          <g id="Group_168" data-name="Group 168">
            <path id="Path_199" data-name="Path 199" d="M132.134,141.4c0,14.957,9.209,25.266,24.165,25.266s25.381-11.083,25.381-26.039-8.856-26.289-23.813-26.289C139.929,114.342,132.134,126.448,132.134,141.4Z" transform="translate(-127.247 -106.26)" fill="#2e3052"/>
            <path id="Path_200" data-name="Path 200" d="M133.314,147.687s-5.227-7.9-2.461-14c2.861-6.306,1.409-4.926,2.121-9.662s4.163-6.687,8.294-7.37,1.3-5.439,7.028-7.146,10.315,4.271,14,1.591,12.727-4,15.269,0,4.8,3.971,7.508,3.842c3.26-.156,7.631,4.986,4.682,9.719s-7.917,2.855-7.23,6.114,4.886,9-.746,16.3C180.07,149.291,133.314,147.687,133.314,147.687Z" transform="translate(-128.086 -108.576)" fill="#2e3052"/>
            <g id="Group_160" data-name="Group 160" transform="translate(0 38.812)">
              <path id="Path_201" data-name="Path 201" d="M136.9,139.039s-4.156-5.541-7.247-.959,1.28,18.113,8.845,14.81Z" transform="translate(-128.648 -136.265)" fill="#fb876b"/>
              <g id="Group_158" data-name="Group 158" transform="translate(1.623 4.851)">
                <path id="Path_202" data-name="Path 202" d="M136.376,147.317a.64.64,0,0,1-.615-.467c-1.172-4.177-5.5-5.872-5.544-5.887a.639.639,0,0,1,.453-1.2c.2.076,4.972,1.927,6.323,6.738a.64.64,0,0,1-.443.788A.626.626,0,0,1,136.376,147.317Z" transform="translate(-129.805 -139.726)" fill="#d45c48"/>
              </g>
              <g id="Group_159" data-name="Group 159" transform="translate(3.186 7.363)">
                <path id="Path_203" data-name="Path 203" d="M131.559,144.494a.626.626,0,0,1-.345-.1.639.639,0,0,1-.192-.883,5.835,5.835,0,0,1,2.4-1.934.64.64,0,0,1,.523,1.168A4.6,4.6,0,0,0,132.1,144.2.644.644,0,0,1,131.559,144.494Z" transform="translate(-130.921 -141.518)" fill="#d45c48"/>
              </g>
            </g>
            <g id="Group_166" data-name="Group 166" transform="translate(49.475 38.812)">
              <path id="Path_204" data-name="Path 204" d="M165.542,139.039s4.156-5.541,7.245-.959-1.278,18.113-8.843,14.81Z" transform="translate(-163.944 -136.265)" fill="#fb876b"/>
              <g id="Group_163" data-name="Group 163" transform="translate(1.012 4.851)">
                <g id="Group_162" data-name="Group 162">
                  <g id="Group_161" data-name="Group 161">
                    <path id="Path_205" data-name="Path 205" d="M165.305,147.317a.637.637,0,0,0,.615-.467c1.173-4.177,5.5-5.872,5.545-5.887a.639.639,0,0,0-.453-1.2c-.2.076-4.973,1.927-6.323,6.738a.639.639,0,0,0,.443.788A.609.609,0,0,0,165.305,147.317Z" transform="translate(-164.666 -139.726)" fill="#d45c48"/>
                  </g>
                </g>
              </g>
              <g id="Group_165" data-name="Group 165" transform="translate(3.258 7.363)">
                <g id="Group_164" data-name="Group 164">
                  <path id="Path_206" data-name="Path 206" d="M169.031,144.494a.627.627,0,0,0,.346-.1.638.638,0,0,0,.191-.883,5.835,5.835,0,0,0-2.4-1.934.639.639,0,0,0-.521,1.168,4.615,4.615,0,0,1,1.846,1.459A.64.64,0,0,0,169.031,144.494Z" transform="translate(-166.268 -141.518)" fill="#d45c48"/>
                </g>
              </g>
            </g>
            <path id="Path_207" data-name="Path 207" d="M162.746,156.314v14.238a9.857,9.857,0,0,1-6.682,3.846c-6.239.739-13-5.855-13-5.855V157.26Z" transform="translate(-122.856 -89.4)" fill="#fba691"/>
            <path id="Path_208" data-name="Path 208" d="M162.746,156.314v5.971c-3.643,4.041-10.11,5.05-19.681,3.637V157.26Z" transform="translate(-122.856 -89.4)" fill="#fb876b"/>
            <path id="Path_209" data-name="Path 209" d="M133.036,145.48q.082,1.169.2,2.366c.2,2,.472,4.063.84,6.113.014.073.024.142.036.206,1.807,9.925,5.87,19.678,14.625,22.807,19.834,7.08,26.915-9.924,29.75-19.84.311-1.1.6-2.325.844-3.632.008-.05.018-.105.032-.165.275-1.468.513-3.03.715-4.641.151-1.193.28-2.4.4-3.623.289-2.962.477-5.933.6-8.57a13.994,13.994,0,0,0-8.965-13.735c-8.135-3.129-20.486-5.6-32.19,1.032a14.05,14.05,0,0,0-7.13,11.955C132.733,138.495,132.774,141.86,133.036,145.48Z" transform="translate(-126.994 -104.148)" fill="#fba691"/>
            <path id="Path_210" data-name="Path 210" d="M132.958,138.18q.082,1.169.2,2.366c.2,2,.472,4.063.84,6.113.014.073.024.142.036.206,1.807,9.925,5.87,19.678,14.625,22.807,19.834,7.08,26.915-9.924,29.75-19.84.311-1.1.6-2.325.844-3.632.008-.05.018-.105.032-.165.275-1.468.513-3.03.715-4.641.151-1.193.28-2.4.4-3.623l-2.973.775c-.848,4.49-2.122,11.03-3.783,14.08-2.6-6.347-17.06-1.106-17.06-1.106s-12.891-4.581-17.256-.028a119.843,119.843,0,0,1-3.922-12.946Zm23.205,15.688c10.406-1.426,12.992,1.233,13.477,4.316a17.888,17.888,0,0,1-8.864,5.329c-3.572.812-10.8.737-16.083-3.422C144.162,157.693,143.56,150.695,156.163,153.868Z" transform="translate(-126.916 -96.849)" fill="#2e3052"/>
            <path id="Path_211" data-name="Path 211" d="M145.946,139.554c0,1.437-.74,2.6-1.654,2.6s-1.654-1.163-1.654-2.6.74-2.6,1.654-2.6S145.946,138.117,145.946,139.554Z" transform="translate(-123.028 -97.178)" fill="#2e3052"/>
            <path id="Path_212" data-name="Path 212" d="M159.633,139.554c0,1.437-.74,2.6-1.654,2.6s-1.654-1.163-1.654-2.6.74-2.6,1.654-2.6S159.633,138.117,159.633,139.554Z" transform="translate(-117.53 -97.178)" fill="#2e3052"/>
            <path id="Path_213" data-name="Path 213" d="M163.492,132.733s-5.217-2.062-9.236-.327l.4,2.234s5.9-.5,8.867.705A3.874,3.874,0,0,0,163.492,132.733Z" transform="translate(-118.361 -99.283)" fill="#2e3052"/>
            <path id="Path_214" data-name="Path 214" d="M139.227,132.733s5.217-2.062,9.236-.327l-.4,2.234s-5.9-.5-8.867.705A3.874,3.874,0,0,1,139.227,132.733Z" transform="translate(-124.496 -99.283)" fill="#2e3052"/>
            <g id="Group_167" data-name="Group 167" transform="translate(27.482 41.075)">
              <path id="Path_215" data-name="Path 215" d="M151.081,150.457a6.772,6.772,0,0,1-2.356-.2.639.639,0,0,1,.336-1.233c.6.163,2.021.36,2.574-.07a.7.7,0,0,0,.241-.629,96.791,96.791,0,0,0-1.573-9.672.639.639,0,1,1,1.252-.259,94.631,94.631,0,0,1,1.6,9.907,1.954,1.954,0,0,1-.734,1.662A2.688,2.688,0,0,1,151.081,150.457Z" transform="translate(-148.254 -137.88)" fill="#fb876b"/>
            </g>
            <path id="Path_216" data-name="Path 216" d="M144.035,149.589c.523,2.63,2.26,7.465,8.109,7.465,5.865,0,7.509-4.42,8.075-7.465Z" transform="translate(-122.467 -92.101)" fill="#fff"/>
            <path id="Path_217" data-name="Path 217" d="M180.395,145.847h-2.9c.321-2.91-.737-6.424-1.609-8.766-1.979-5.311,2.233-7.655-1.175-10.314s-11.889-1.524-17.788-1.714c-5.935-.192-15.473-.108-17.788.429s-1.048,4.383-.2,7.369-2.845,6.278-3.465,9.366a13.587,13.587,0,0,0,0,3.63h-2.415c-.287-3.758-.331-7.257-.278-10.094a14.048,14.048,0,0,1,7.128-11.955c11.706-6.636,24.057-4.162,32.19-1.036a14.006,14.006,0,0,1,8.969,13.739C180.934,139.367,180.723,142.626,180.395,145.847Z" transform="translate(-126.994 -104.148)" fill="#2e3052"/>
          </g>
        </g>
        <g id="Group_173" data-name="Group 173" transform="translate(21.324 54.014)">
          <rect id="Rectangle_211" data-name="Rectangle 211" width="162.535" height="112.274" transform="translate(0.003 125.309) rotate(-50.441)" fill="#ffaa01"/>
          <path id="Path_218" data-name="Path 218" d="M218.455,147.115,224,151.7l3.775,108.522L120.492,277l-5.549-4.584L222.417,255.8Z" transform="translate(-114.936 -147.109)" fill="#f88800"/>
          <g id="Group_170" data-name="Group 170" transform="translate(81.322 111.732)">
            <path id="Path_219" data-name="Path 219" d="M178.217,226.822l2.976,81.453-3,3.629-2.207-1.823-3.034-83.066Z" transform="translate(-172.955 -226.822)" fill="#f88800"/>
          </g>
          <g id="Group_172" data-name="Group 172" transform="translate(105.455 69.924)">
            <g id="Group_171" data-name="Group 171">
              <path id="Path_220" data-name="Path 220" d="M272.881,197l1.914,1.581-3.269,3.958-80.55,12.454-.8-5.2Z" transform="translate(-190.172 -196.996)" fill="#f88800"/>
            </g>
          </g>
          <path id="Path_221" data-name="Path 221" d="M114.938,272.422,222.419,255.8l-3.966-108.687Z" transform="translate(-114.938 -147.11)" fill="#fdcc50"/>
        </g>
        <g id="Group_178" data-name="Group 178" transform="translate(21.618 94.014)">
          <path id="Path_222" data-name="Path 222" d="M176.55,262.686h2.987a6.523,6.523,0,0,0,5.894-3.956,38.8,38.8,0,0,1,1.747-3.646c1.4-1.863,5.2-4.987,6.633-5.081s1.163,2.559.156,3.723a23.893,23.893,0,0,0-3.452,4.289c-.854,1.646,6.982,4.98,10.162,5.757s8.765-.931,9.309,1.706-3.646,3.026-3.646,3.026,1.226,2.376-2.25,4.344a3.213,3.213,0,0,1-1.629,3.569s.255,2.948-2.355,3.723-10.755,3.138-26.736-6.559Z" transform="translate(-91.76 -145.781)" fill="#fba691"/>
          <g id="Group_177" data-name="Group 177">
            <g id="Group_176" data-name="Group 176">
              <g id="Group_175" data-name="Group 175">
                <g id="Group_174" data-name="Group 174">
                  <path id="Path_223" data-name="Path 223" d="M145.1,224.712c6.033,22.8,11.951,32.88,11.951,32.88s6.77,10.343,20.681,20.13c9.663,6.8,25.19,14.833,25.19,14.833-2.679,3.483-4.571,10.366-3.535,12.425-32.28,0-60.51-30.581-60.51-30.581-22.586-39.3-24.059-71.315-23.689-82.978a22.257,22.257,0,0,1,3.587-11.557,11.557,11.557,0,0,1,4.342-4.215,23.523,23.523,0,0,1,13.047,14.969C139.532,201.976,145.1,224.712,145.1,224.712Z" transform="translate(-115.148 -175.648)" fill="#007fe9"/>
                </g>
              </g>
            </g>
          </g>
        </g>
        <path id="Path_224" data-name="Path 224" d="M245.106,212.539s-7.181-2.538-10.48-1.165,5.845,6.326,5.845,6.326-11.086-5.9-13-3.522,8.691,8.417,8.691,8.417-8.12-2.854-9.768-1.177,5.919,6.409,5.919,6.409-6.664-1.609-8.054-.478,4.516,5.877,8.266,7.135,4.355-4.023,4.355-4.023,3.527-3.106,3.057-5.262c0,0,3.66-2.467,3.918-4.99C243.854,220.207,249.018,215.66,245.106,212.539Z" transform="translate(-49.784 -67.447)" fill="#fba691"/>
      </g>
    </g>
  </g>
</svg>
