<svg xmlns="http://www.w3.org/2000/svg" width="38" height="38" viewBox="0 0 38 38">
  <g id="Group_193" data-name="Group 193" transform="translate(-1342 -318)">
    <rect id="Rectangle_145" data-name="Rectangle 145" width="38" height="38" rx="5" transform="translate(1342 318)" fill="#4f84d8"/>
    <g id="Pencil" transform="translate(1350.198 325.082)">
      <path id="Path_17" data-name="Path 17" d="M20.5,5.475,18.157,3.13a2.331,2.331,0,0,0-3.291,0L4.226,13.77a2.922,2.922,0,0,0-.788,1.478l-.985,5.064a.72.72,0,0,0,.847.847l5.064-.985a2.932,2.932,0,0,0,1.478-.788l10.64-10.64A2.325,2.325,0,0,0,20.5,5.475ZM4.108,19.524l.729-3.8a17.668,17.668,0,0,1,1.616,1.438,17.341,17.341,0,0,1,1.438,1.616Zm5.064-1.5A18.033,18.033,0,0,0,7.5,16.134,20.267,20.267,0,0,0,5.605,14.46L13.861,6.2a17.474,17.474,0,0,1,1.892,1.655A15.9,15.9,0,0,1,17.408,9.77ZM19.457,7.741l-1,1a18.034,18.034,0,0,0-1.675-1.892,20.267,20.267,0,0,0-1.892-1.675l1-1a.868.868,0,0,1,1.222,0L19.457,6.5A.892.892,0,0,1,19.457,7.741Z" fill="#fff"/>
      <path id="Path_18" data-name="Path 18" d="M38.1,34.757,33.157,39.7a.725.725,0,1,0,1.025,1.025l4.946-4.946A.725.725,0,1,0,38.1,34.757Z" transform="translate(-24.498 -25.775)" fill="#fff"/>
    </g>
  </g>
</svg>
