<svg xmlns="http://www.w3.org/2000/svg" width="412" height="412" viewBox="0 0 412 412">
  <g id="Group_182" data-name="Group 182" transform="translate(-617 -316)">
    <circle id="Ellipse_1" data-name="Ellipse 1" cx="206" cy="206" r="206" transform="translate(617 316)" fill="#dee3ed"/>
    <g id="Group_36" data-name="Group 36" transform="translate(625.775 319.783)">
      <g id="Background_Complete" data-name="Background Complete" transform="translate(0 54.953)">
        <g id="Group_7" data-name="Group 7">
          <rect id="Rectangle_153" data-name="Rectangle 153" width="395.225" height="0.198" transform="translate(0 258.829)" fill="#ebebeb"/>
          <rect id="Rectangle_154" data-name="Rectangle 154" width="26.181" height="0.198" transform="translate(329.443 271.552)" fill="#ebebeb"/>
          <rect id="Rectangle_155" data-name="Rectangle 155" width="6.872" height="0.198" transform="translate(254.941 273.697)" fill="#ebebeb"/>
          <rect id="Rectangle_156" data-name="Rectangle 156" width="15.171" height="0.198" transform="translate(313.481 264.212)" fill="#ebebeb"/>
          <rect id="Rectangle_157" data-name="Rectangle 157" width="34.142" height="0.198" transform="translate(41.466 265.54)" fill="#ebebeb"/>
          <rect id="Rectangle_158" data-name="Rectangle 158" width="5.006" height="0.198" transform="translate(82.646 265.54)" fill="#ebebeb"/>
          <rect id="Rectangle_159" data-name="Rectangle 159" width="74.046" height="0.198" transform="translate(103.922 268.878)" fill="#ebebeb"/>
          <path id="Path_20" data-name="Path 20" d="M195.354,278.53H42.719a4.517,4.517,0,0,1-4.512-4.512V59.464a4.517,4.517,0,0,1,4.512-4.511H195.354a4.517,4.517,0,0,1,4.511,4.511V274.018A4.517,4.517,0,0,1,195.354,278.53ZM42.719,55.151A4.319,4.319,0,0,0,38.4,59.464V274.018a4.319,4.319,0,0,0,4.314,4.314H195.354a4.319,4.319,0,0,0,4.313-4.314V59.464a4.318,4.318,0,0,0-4.313-4.313Z" transform="translate(-8.006 -54.953)" fill="#ebebeb"/>
          <path id="Path_21" data-name="Path 21" d="M411.65,278.53H259.016a4.517,4.517,0,0,1-4.511-4.512V59.464a4.516,4.516,0,0,1,4.511-4.511H411.65a4.517,4.517,0,0,1,4.513,4.511V274.018A4.518,4.518,0,0,1,411.65,278.53ZM259.016,55.151a4.318,4.318,0,0,0-4.313,4.313V274.018a4.319,4.319,0,0,0,4.313,4.314H411.65a4.319,4.319,0,0,0,4.315-4.314V59.464a4.319,4.319,0,0,0-4.315-4.313Z" transform="translate(-53.331 -54.953)" fill="#ebebeb"/>
        </g>
        <g id="Group_8" data-name="Group 8" transform="translate(220.127 22.827)">
          <rect id="Rectangle_160" data-name="Rectangle 160" width="108.909" height="71.32" transform="translate(117.768 71.32) rotate(180)" fill="#e6e6e6"/>
          <rect id="Rectangle_161" data-name="Rectangle 161" width="110.679" height="71.32" transform="translate(116.215 71.32) rotate(180)" fill="#f0f0f0"/>
          <rect id="Rectangle_162" data-name="Rectangle 162" width="108.909" height="13.997" transform="translate(117.768 85.317) rotate(180)" fill="#e6e6e6"/>
          <rect id="Rectangle_163" data-name="Rectangle 163" width="110.679" height="13.997" transform="translate(110.679 85.317) rotate(180)" fill="#f0f0f0"/>
          <rect id="Rectangle_164" data-name="Rectangle 164" width="62.015" height="101.375" transform="translate(111.563 4.652) rotate(90)" fill="#fafafa"/>
          <path id="Path_22" data-name="Path 22" d="M381.913,151.733,368.965,89.718h-20.2l12.948,62.015Z" transform="translate(-293.21 -85.065)" fill="#fff"/>
          <path id="Path_23" data-name="Path 23" d="M416.809,147.816a.332.332,0,0,0,.332-.332V93.458a.332.332,0,0,0-.665,0v54.027A.333.333,0,0,0,416.809,147.816Z" transform="translate(-307.399 -85.779)" fill="#f0f0f0"/>
          <path id="Path_24" data-name="Path 24" d="M354.129,151.733,341.181,89.718H333.3l12.948,62.015Z" transform="translate(-289.971 -85.065)" fill="#fff"/>
          <rect id="Rectangle_165" data-name="Rectangle 165" width="62.015" height="0.591" transform="translate(10.779 4.652) rotate(90)" fill="#e6e6e6"/>
          <path id="Path_25" data-name="Path 25" d="M284.095,97.211H393L393.432,92H284.523Z" transform="translate(-279.659 -85.544)" fill="#ebebeb" opacity="0.6"/>
          <path id="Path_26" data-name="Path 26" d="M284.095,108.013H393l.428-5.206H284.523Z" transform="translate(-279.659 -87.808)" fill="#ebebeb" opacity="0.6"/>
          <path id="Path_27" data-name="Path 27" d="M284.095,118.815H393l.428-5.206H284.523Z" transform="translate(-279.659 -90.072)" fill="#ebebeb" opacity="0.6"/>
          <path id="Path_28" data-name="Path 28" d="M284.095,129.617H393l.428-5.206H284.523Z" transform="translate(-279.659 -92.335)" fill="#ebebeb" opacity="0.6"/>
          <path id="Path_29" data-name="Path 29" d="M284.095,140.419H393l.428-5.206H284.523Z" transform="translate(-279.659 -94.599)" fill="#ebebeb" opacity="0.6"/>
          <path id="Path_30" data-name="Path 30" d="M284.095,151.221H393l.428-5.206H284.523Z" transform="translate(-279.659 -96.862)" fill="#ebebeb" opacity="0.6"/>
        </g>
        <g id="Group_11" data-name="Group 11" transform="translate(241.748 155.229)">
          <g id="Group_10" data-name="Group 10" transform="translate(0)">
            <g id="Group_9" data-name="Group 9">
              <rect id="Rectangle_166" data-name="Rectangle 166" width="22.835" height="4.502" transform="translate(57.674 51.733)" fill="#e6e6e6"/>
              <rect id="Rectangle_167" data-name="Rectangle 167" width="4.216" height="103.6" transform="translate(18.817 103.6) rotate(180)" fill="#e6e6e6"/>
              <rect id="Rectangle_168" data-name="Rectangle 168" width="57.674" height="4.502" transform="translate(57.674 56.236) rotate(180)" fill="#f5f5f5"/>
              <rect id="Rectangle_169" data-name="Rectangle 169" width="22.835" height="4.502" transform="translate(57.674 76.369)" fill="#e6e6e6"/>
              <rect id="Rectangle_170" data-name="Rectangle 170" width="57.674" height="4.502" transform="translate(57.674 80.871) rotate(180)" fill="#f5f5f5"/>
              <rect id="Rectangle_171" data-name="Rectangle 171" width="22.835" height="4.502" transform="translate(57.674 2.462)" fill="#e6e6e6"/>
              <rect id="Rectangle_172" data-name="Rectangle 172" width="57.674" height="4.502" transform="translate(57.674 6.964) rotate(180)" fill="#f5f5f5"/>
              <rect id="Rectangle_173" data-name="Rectangle 173" width="22.835" height="4.502" transform="translate(57.674 27.098)" fill="#e6e6e6"/>
              <rect id="Rectangle_174" data-name="Rectangle 174" width="57.674" height="4.502" transform="translate(57.674 31.6) rotate(180)" fill="#f5f5f5"/>
            </g>
          </g>
          <rect id="Rectangle_175" data-name="Rectangle 175" width="4.216" height="103.6" transform="translate(76.491 103.6) rotate(180)" fill="#e6e6e6"/>
          <rect id="Rectangle_176" data-name="Rectangle 176" width="4.216" height="103.6" transform="translate(57.674 103.6) rotate(180)" fill="#f5f5f5"/>
          <rect id="Rectangle_177" data-name="Rectangle 177" width="4.216" height="103.6" transform="translate(4.216 103.6) rotate(180)" fill="#f5f5f5"/>
        </g>
        <g id="Group_13" data-name="Group 13" transform="translate(51.675 175.127)">
          <g id="Group_12" data-name="Group 12">
            <rect id="Rectangle_178" data-name="Rectangle 178" width="43.141" height="83.703" transform="translate(43.141 83.703) rotate(180)" fill="#e6e6e6"/>
            <path id="Path_31" data-name="Path 31" d="M76.894,379.336H65.374V367.781h23.6Z" transform="translate(-65.374 -295.633)" fill="#fafafa"/>
            <rect id="Rectangle_179" data-name="Rectangle 179" width="43.141" height="83.703" transform="translate(160.768 83.703) rotate(180)" fill="#e6e6e6"/>
            <rect id="Rectangle_180" data-name="Rectangle 180" width="127.68" height="79.725" transform="translate(127.681 79.725) rotate(180)" fill="#fafafa"/>
            <path id="Path_32" data-name="Path 32" d="M209.127,379.336h11.52V367.781h-23.6Z" transform="translate(-92.966 -295.633)" fill="#fafafa"/>
            <rect id="Rectangle_181" data-name="Rectangle 181" width="109.807" height="19.952" transform="translate(118.744 49.66) rotate(180)" fill="#f0f0f0"/>
            <rect id="Rectangle_182" data-name="Rectangle 182" width="109.807" height="19.952" transform="translate(118.744 73.876) rotate(180)" fill="#f0f0f0"/>
            <path id="Rectangle_183" data-name="Rectangle 183" d="M3.861,0H71.438A3.861,3.861,0,0,1,75.3,3.861v0a0,0,0,0,1,0,0H0a0,0,0,0,1,0,0v0A3.861,3.861,0,0,1,3.861,0Z" transform="translate(101.49 31.841) rotate(180)" fill="#fafafa"/>
            <rect id="Rectangle_184" data-name="Rectangle 184" width="109.807" height="19.952" transform="translate(118.744 25.444) rotate(180)" fill="#f0f0f0"/>
            <path id="Rectangle_185" data-name="Rectangle 185" d="M3.861,0H71.438A3.861,3.861,0,0,1,75.3,3.861v0a0,0,0,0,1,0,0H0a0,0,0,0,1,0,0v0A3.861,3.861,0,0,1,3.861,0Z" transform="translate(101.49 7.625) rotate(180)" fill="#fafafa"/>
            <path id="Rectangle_186" data-name="Rectangle 186" d="M3.861,0H71.438A3.861,3.861,0,0,1,75.3,3.861v0a0,0,0,0,1,0,0H0a0,0,0,0,1,0,0v0A3.861,3.861,0,0,1,3.861,0Z" transform="translate(101.49 56.057) rotate(180)" fill="#fafafa"/>
          </g>
        </g>
        <g id="Group_14" data-name="Group 14" transform="translate(49.688 22.827)">
          <rect id="Rectangle_187" data-name="Rectangle 187" width="108.909" height="71.32" transform="translate(117.768 71.32) rotate(180)" fill="#e6e6e6"/>
          <rect id="Rectangle_188" data-name="Rectangle 188" width="110.679" height="71.32" transform="translate(116.215 71.32) rotate(180)" fill="#f0f0f0"/>
          <rect id="Rectangle_189" data-name="Rectangle 189" width="108.909" height="13.997" transform="translate(117.768 85.317) rotate(180)" fill="#e6e6e6"/>
          <rect id="Rectangle_190" data-name="Rectangle 190" width="110.679" height="13.997" transform="translate(110.679 85.317) rotate(180)" fill="#f0f0f0"/>
          <rect id="Rectangle_191" data-name="Rectangle 191" width="62.015" height="101.375" transform="translate(111.563 4.652) rotate(90)" fill="#fafafa"/>
          <path id="Path_33" data-name="Path 33" d="M166.291,151.733,153.343,89.718h-20.2l12.948,62.015Z" transform="translate(-77.587 -85.065)" fill="#fff"/>
          <path id="Path_34" data-name="Path 34" d="M201.186,147.816a.332.332,0,0,0,.333-.332V93.458a.332.332,0,0,0-.665,0v54.027A.332.332,0,0,0,201.186,147.816Z" transform="translate(-91.777 -85.779)" fill="#f0f0f0"/>
          <path id="Path_35" data-name="Path 35" d="M138.507,151.733,125.559,89.718h-7.877l12.948,62.015Z" transform="translate(-74.348 -85.065)" fill="#fff"/>
          <rect id="Rectangle_192" data-name="Rectangle 192" width="62.015" height="0.591" transform="translate(10.779 4.652) rotate(90)" fill="#e6e6e6"/>
          <path id="Path_36" data-name="Path 36" d="M68.472,97.211H177.381L177.809,92H68.9Z" transform="translate(-64.036 -85.544)" fill="#ebebeb" opacity="0.6"/>
          <path id="Path_37" data-name="Path 37" d="M68.472,100.927H177.381l.428-5.206H68.9Z" transform="translate(-64.036 -86.323)" fill="#ebebeb" opacity="0.6"/>
          <path id="Path_38" data-name="Path 38" d="M68.472,104.642H177.381l.428-5.206H68.9Z" transform="translate(-64.036 -87.102)" fill="#ebebeb" opacity="0.6"/>
          <path id="Path_39" data-name="Path 39" d="M68.472,108.357H177.381l.428-5.206H68.9Z" transform="translate(-64.036 -87.88)" fill="#ebebeb" opacity="0.6"/>
          <path id="Path_40" data-name="Path 40" d="M68.472,112.073H177.381l.428-5.206H68.9Z" transform="translate(-64.036 -88.659)" fill="#ebebeb" opacity="0.6"/>
          <path id="Path_41" data-name="Path 41" d="M68.472,115.788H177.381l.428-5.206H68.9Z" transform="translate(-64.036 -89.437)" fill="#ebebeb" opacity="0.6"/>
        </g>
        <g id="Group_15" data-name="Group 15" transform="translate(60.923 117.024)">
          <rect id="Rectangle_193" data-name="Rectangle 193" width="3.765" height="41.967" transform="translate(18.736 55.546) rotate(180)" fill="#f5f5f5"/>
          <rect id="Rectangle_194" data-name="Rectangle 194" width="1.064" height="41.967" transform="translate(16.519 55.517) rotate(180)" fill="#fafafa"/>
          <rect id="Rectangle_195" data-name="Rectangle 195" width="0.417" height="41.967" transform="translate(17.382 55.517) rotate(180)" fill="#fafafa"/>
          <path id="Rectangle_196" data-name="Rectangle 196" d="M0,0H27.874a0,0,0,0,1,0,0V0a3.512,3.512,0,0,1-3.512,3.512H3.512A3.512,3.512,0,0,1,0,0V0A0,0,0,0,1,0,0Z" transform="translate(30.791 58.104) rotate(180)" fill="#f0f0f0"/>
          <path id="Path_42" data-name="Path 42" d="M89.548,245.269h0a1.086,1.086,0,0,0,1.083-1.083V216.671a1.086,1.086,0,0,0-1.083-1.083h0a1.087,1.087,0,0,0-1.083,1.083v27.516A1.086,1.086,0,0,0,89.548,245.269Z" transform="translate(-79.461 -205.638)" fill="#f0f0f0"/>
          <path id="Path_43" data-name="Path 43" d="M77.074,226.554h33.707L106.9,203H80.951Z" transform="translate(-77.074 -203)" fill="#e0e0e0"/>
        </g>
      </g>
      <g id="Shadow" transform="translate(44.353 331.58)">
        <ellipse id="_Path_" data-name="&lt;Path&gt;" cx="153.26" cy="8.951" rx="153.26" ry="8.951" fill="#f5f5f5"/>
      </g>
      <g id="Window_No_Data" data-name="Window No Data" transform="translate(81.511 131.204)">
        <g id="Group_26" data-name="Group 26" transform="translate(0 0)">
          <g id="Group_18" data-name="Group 18">
            <rect id="Rectangle_197" data-name="Rectangle 197" width="0.791" height="14.615" transform="matrix(0.997, -0.072, 0.072, 0.997, 0, 40.324)" fill="#407bff"/>
            <rect id="Rectangle_198" data-name="Rectangle 198" width="0.791" height="5.498" transform="translate(1.592 62.428) rotate(-4.121)" fill="#407bff"/>
            <path id="Path_44" data-name="Path 44" d="M288.646,280.849H119.365a7.626,7.626,0,0,1-7.463-6.962L103.585,158.38a6.408,6.408,0,0,1,6.46-6.962H279.326a7.626,7.626,0,0,1,7.463,6.962l8.318,115.508A6.409,6.409,0,0,1,288.646,280.849Z" transform="translate(-103.213 -151.418)" fill="#407bff"/>
            <g id="Group_17" data-name="Group 17" transform="translate(1.003)">
              <g id="Group_16" data-name="Group 16">
                <path id="Path_45" data-name="Path 45" d="M289.467,280.849H120.186a7.626,7.626,0,0,1-7.463-6.962L104.406,158.38a6.409,6.409,0,0,1,6.46-6.962H280.147a7.626,7.626,0,0,1,7.463,6.962l8.318,115.508A6.409,6.409,0,0,1,289.467,280.849Z" transform="translate(-104.388 -151.418)" fill="#407bff"/>
                <path id="Path_46" data-name="Path 46" d="M289.467,280.849H120.186a7.626,7.626,0,0,1-7.463-6.962L104.406,158.38a6.409,6.409,0,0,1,6.46-6.962H280.147a7.626,7.626,0,0,1,7.463,6.962l8.318,115.508A6.409,6.409,0,0,1,289.467,280.849Z" transform="translate(-104.388 -151.418)" fill="#fff" opacity="0.5"/>
              </g>
              <path id="Path_47" data-name="Path 47" d="M281.28,155.821H112q-.287,0-.567.023c-4.328.356-3.443,6.939.924,6.939h169.57c4.367,0,4.3-6.582-.075-6.939Q281.567,155.821,281.28,155.821Z" transform="translate(-105.27 -152.341)" fill="#407bff"/>
              <path id="Path_48" data-name="Path 48" d="M117.631,159.8a1.466,1.466,0,0,1-1.481,1.6,1.743,1.743,0,0,1-1.711-1.6,1.464,1.464,0,0,1,1.481-1.6A1.742,1.742,0,0,1,117.631,159.8Z" transform="translate(-106.493 -152.84)" fill="#fafafa"/>
              <path id="Path_49" data-name="Path 49" d="M124.5,159.8a1.466,1.466,0,0,1-1.481,1.6,1.743,1.743,0,0,1-1.711-1.6,1.464,1.464,0,0,1,1.481-1.6A1.742,1.742,0,0,1,124.5,159.8Z" transform="translate(-107.933 -152.84)" fill="#fafafa"/>
              <path id="Path_50" data-name="Path 50" d="M131.367,159.8a1.466,1.466,0,0,1-1.481,1.6,1.743,1.743,0,0,1-1.711-1.6,1.464,1.464,0,0,1,1.481-1.6A1.743,1.743,0,0,1,131.367,159.8Z" transform="translate(-109.372 -152.84)" fill="#fafafa"/>
            </g>
            <path id="Path_51" data-name="Path 51" d="M287.384,274.057H125.419a2.756,2.756,0,0,1-2.7-2.524l-6.841-94.991a2.317,2.317,0,0,1,2.342-2.524H280.181a2.757,2.757,0,0,1,2.706,2.524l6.84,94.991A2.317,2.317,0,0,1,287.384,274.057Z" transform="translate(-105.791 -156.154)" fill="#fff"/>
          </g>
          <g id="Group_25" data-name="Group 25" transform="translate(78.363 39.912)">
            <g id="Group_23" data-name="Group 23" transform="translate(2.009)">
              <g id="Group_21" data-name="Group 21">
                <g id="Group_19" data-name="Group 19">
                  <path id="Path_52" data-name="Path 52" d="M237.887,243.817,235.25,207.2l-7.989-4.809H205.283l2.983,41.422Z" transform="translate(-204.9 -202.013)" fill="#fff"/>
                  <path id="Path_53" data-name="Path 53" d="M237.785,244.1H208.165a.384.384,0,0,1-.383-.356L204.8,202.321a.383.383,0,0,1,.382-.41h21.978a.383.383,0,0,1,.2.055l7.989,4.809a.384.384,0,0,1,.185.3l2.636,36.613a.383.383,0,0,1-.382.411Zm-29.264-.766h28.852l-2.593-36-7.727-4.652h-21.46Z" transform="translate(-204.799 -201.911)" fill="#407bff"/>
                </g>
                <g id="Group_20" data-name="Group 20" transform="translate(21.978 0)">
                  <path id="Path_54" data-name="Path 54" d="M241.077,207.2l-7.989-4.809,2.933,6.37Z" transform="translate(-232.704 -202.013)" fill="#ebebeb"/>
                  <path id="Path_55" data-name="Path 55" d="M235.919,209.047a.383.383,0,0,1-.348-.223l-2.933-6.37a.383.383,0,0,1,.545-.489l7.989,4.809a.383.383,0,0,1-.085.694l-5.056,1.562A.4.4,0,0,1,235.919,209.047Zm-2.065-5.784,2.273,4.936,3.917-1.21Z" transform="translate(-232.603 -201.911)" fill="#407bff"/>
                </g>
              </g>
              <g id="Group_22" data-name="Group 22" transform="translate(7.489 17.373)">
                <path id="Path_56" data-name="Path 56" d="M220.081,225.562a1.536,1.536,0,0,1-1.552,1.673,1.827,1.827,0,0,1-1.794-1.673,1.536,1.536,0,0,1,1.553-1.673A1.827,1.827,0,0,1,220.081,225.562Z" transform="translate(-214.788 -223.889)" fill="#407bff"/>
                <path id="Path_57" data-name="Path 57" d="M233.817,225.562a1.536,1.536,0,0,1-1.553,1.673,1.827,1.827,0,0,1-1.794-1.673,1.536,1.536,0,0,1,1.552-1.673A1.827,1.827,0,0,1,233.817,225.562Z" transform="translate(-217.666 -223.889)" fill="#407bff"/>
                <path id="Path_58" data-name="Path 58" d="M233.487,238.144a.383.383,0,0,1-.382-.356c-.194-2.69-4.414-4.879-9.406-4.879-3.308,0-6.279.983-7.751,2.567a2.954,2.954,0,0,0-.9,2.258.383.383,0,0,1-.764.055,3.739,3.739,0,0,1,1.1-2.834c1.613-1.734,4.8-2.812,8.312-2.812,5.477,0,9.945,2.456,10.171,5.591a.383.383,0,0,1-.355.409Z" transform="translate(-214.273 -225.619)" fill="#407bff"/>
              </g>
              <path id="Path_59" data-name="Path 59" d="M213.065,221.034a.384.384,0,0,1-.281-.644l1.678-1.809a.383.383,0,0,1,.562.521l-1.678,1.809A.382.382,0,0,1,213.065,221.034Z" transform="translate(-206.451 -205.379)" fill="#407bff"/>
              <path id="Path_60" data-name="Path 60" d="M236.968,221.034a.382.382,0,0,1-.261-.1l-1.939-1.809a.383.383,0,1,1,.522-.56l1.939,1.809a.383.383,0,0,1-.262.663Z" transform="translate(-211.053 -205.379)" fill="#407bff"/>
            </g>
            <g id="Group_24" data-name="Group 24" transform="translate(0 49.884)">
              <path id="Path_61" data-name="Path 61" d="M202.257,265.153h1.786l2.578,3.425-.247-3.425h1.8l.446,6.191h-1.8l-2.563-3.4.244,3.4h-1.8Z" transform="translate(-202.257 -265.047)" fill="#407bff"/>
              <path id="Path_62" data-name="Path 62" d="M211.33,268.224a2.705,2.705,0,0,1,2.967-3.205,3.454,3.454,0,0,1,2.442.83,3.362,3.362,0,0,1,1,2.325,3.674,3.674,0,0,1-.237,1.78,2.346,2.346,0,0,1-.978,1.081,3.326,3.326,0,0,1-1.693.387,4.127,4.127,0,0,1-1.758-.334,2.9,2.9,0,0,1-1.189-1.056A3.706,3.706,0,0,1,211.33,268.224Zm1.914.009a2.2,2.2,0,0,0,.446,1.347,1.267,1.267,0,0,0,.977.41,1.094,1.094,0,0,0,.926-.4,2.191,2.191,0,0,0,.235-1.44,2.038,2.038,0,0,0-.445-1.277,1.3,1.3,0,0,0-.986-.4,1.077,1.077,0,0,0-.9.409A1.987,1.987,0,0,0,213.244,268.233Z" transform="translate(-204.156 -265.019)" fill="#407bff"/>
              <path id="Path_63" data-name="Path 63" d="M224.152,265.153h2.842a3.535,3.535,0,0,1,1.375.228,2.456,2.456,0,0,1,.9.654,2.956,2.956,0,0,1,.561.993,4.732,4.732,0,0,1,.239,1.2,4.056,4.056,0,0,1-.115,1.54,2.305,2.305,0,0,1-.561.916,1.865,1.865,0,0,1-.826.492,4.314,4.314,0,0,1-1.128.168H224.6Zm2.014,1.4.244,3.383h.469a1.907,1.907,0,0,0,.843-.133.816.816,0,0,0,.364-.465,2.839,2.839,0,0,0,.066-1.075,2.207,2.207,0,0,0-.417-1.347,1.45,1.45,0,0,0-1.091-.364Z" transform="translate(-206.845 -265.047)" fill="#407bff"/>
              <path id="Path_64" data-name="Path 64" d="M236.294,270.322h-2.172l-.228,1.022H231.94l1.881-6.191h2.087l2.772,6.191h-2Zm-.493-1.338-.844-2.226-.515,2.226Z" transform="translate(-208.477 -265.047)" fill="#407bff"/>
              <path id="Path_65" data-name="Path 65" d="M239.369,265.153h5.815l.11,1.529h-1.951l.336,4.662h-1.914l-.335-4.662h-1.952Z" transform="translate(-210.034 -265.047)" fill="#407bff"/>
              <path id="Path_66" data-name="Path 66" d="M251.211,270.322h-2.171l-.228,1.022h-1.954l1.881-6.191h2.087l2.773,6.191h-2Zm-.493-1.338-.843-2.226-.516,2.226Z" transform="translate(-211.603 -265.047)" fill="#407bff"/>
            </g>
          </g>
        </g>
      </g>
      <g id="Character" transform="translate(227.186 100.833)">
        <g id="Group_35" data-name="Group 35" transform="translate(0 0)">
          <path id="Path_67" data-name="Path 67" d="M353.688,164.549c.707-.354,1.548-.812,2.327-1.239s1.582-.89,2.359-1.363c1.548-.953,3.109-1.9,4.591-2.942a60.9,60.9,0,0,0,8.309-6.84c.33-.3.611-.637.917-.956l.451-.485.226-.241.113-.122c.029-.032.023-.025.008-.006l-.025.039c-.113.21-.019.147.025-.057a4.318,4.318,0,0,0,.111-.862,23.726,23.726,0,0,0-.576-4.994c-.7-3.546-1.769-7.192-2.823-10.764l3.072-1.347a64.8,64.8,0,0,1,4.831,10.749,25.193,25.193,0,0,1,1.359,6.239,9.659,9.659,0,0,1-.066,1.985,6.013,6.013,0,0,1-.967,2.6l-.131.183-.1.133-.122.149-.243.3-.488.593c-.33.39-.642.8-.992,1.167a56.238,56.238,0,0,1-9,8.025c-1.61,1.177-3.257,2.295-4.966,3.312q-1.277.773-2.59,1.49c-.888.494-1.732.923-2.74,1.4Z" transform="translate(-301.301 -117.056)" fill="#ffb573"/>
          <path id="Path_68" data-name="Path 68" d="M344.387,407.734a7.986,7.986,0,0,0,1.748-.238.156.156,0,0,0,.051-.283c-.227-.149-2.238-1.447-3.008-1.1a.534.534,0,0,0-.312.441.891.891,0,0,0,.26.833A1.894,1.894,0,0,0,344.387,407.734Zm1.3-.462a3.139,3.139,0,0,1-2.355-.115.589.589,0,0,1-.16-.558.222.222,0,0,1,.13-.2C343.712,406.217,344.872,406.777,345.691,407.272Z" transform="translate(-299.03 -174.406)" fill="#407bff"/>
          <path id="Path_69" data-name="Path 69" d="M346.489,407.089a.156.156,0,0,0,.156-.157c0-.081-.009-1.987-.729-2.624a.817.817,0,0,0-.664-.209.546.546,0,0,0-.527.437c-.149.746,1.054,2.175,1.686,2.533A.157.157,0,0,0,346.489,407.089Zm-1.126-2.684a.508.508,0,0,1,.346.138,3.583,3.583,0,0,1,.613,2.085c-.629-.5-1.38-1.576-1.289-2.031.015-.074.058-.163.258-.187A.562.562,0,0,1,345.363,404.4Z" transform="translate(-299.42 -173.995)" fill="#407bff"/>
          <path id="Path_70" data-name="Path 70" d="M342.79,148.067c-.77,3.929-2.393,11.886.356,14.508,0,0-1.074,3.985-8.374,3.985-8.028,0-3.837-3.985-3.837-3.985,4.381-1.046,4.268-4.3,3.5-7.35Z" transform="translate(-296.304 -120.345)" fill="#ffb573"/>
          <path id="Path_71" data-name="Path 71" d="M329.128,167.236c-1.26.171-.188-3.093.324-3.431,1.183-.782,16.482-1.889,16.382-.032a4.943,4.943,0,0,1-1.107,2.888C344.057,167.191,340.127,165.591,329.128,167.236Z" transform="translate(-296.03 -123.423)" fill="#263238"/>
          <path id="Path_72" data-name="Path 72" d="M332.225,165.394c-1,.338-.906-2.951-.564-3.347.788-.915,13.171-4.1,13.54-2.3a5.1,5.1,0,0,1-.215,2.933C344.559,163.285,340.921,162.288,332.225,165.394Z" transform="translate(-296.635 -122.679)" fill="#263238"/>
          <path id="Path_73" data-name="Path 73" d="M325.906,138.653a.316.316,0,0,1-.262-.115,2.5,2.5,0,0,0-2.046-.971.314.314,0,1,1-.068-.624,3.112,3.112,0,0,1,2.6,1.2.314.314,0,0,1-.224.512Z" transform="translate(-294.922 -118.013)" fill="#263238"/>
          <path id="Path_74" data-name="Path 74" d="M324.258,144a14.271,14.271,0,0,1-1.56,3.578,2.3,2.3,0,0,0,1.93.169Z" transform="translate(-294.807 -119.493)" fill="#ff5652"/>
          <path id="Path_75" data-name="Path 75" d="M324.825,142.548c.052.531-.187.99-.534,1.024s-.671-.369-.723-.9.187-.99.534-1.024S324.773,142.016,324.825,142.548Z" transform="translate(-294.987 -118.999)" fill="#263238"/>
          <path id="Path_76" data-name="Path 76" d="M324.095,141.6l-1.313-.242S323.535,142.292,324.095,141.6Z" transform="translate(-294.824 -118.939)" fill="#263238"/>
          <path id="Path_77" data-name="Path 77" d="M354.945,403.621h-6.621l.519-15.333h6.621Z" transform="translate(-300.177 -170.683)" fill="#ffb573"/>
          <path id="Path_78" data-name="Path 78" d="M345.135,406.715h7.438a.525.525,0,0,1,.529.453l.847,5.885a1.064,1.064,0,0,1-1.062,1.178c-2.593-.045-3.843-.2-7.114-.2-2.012,0-4.953.209-7.732.209-2.718,0-2.927-2.748-1.77-3,5.189-1.116,6.008-2.655,7.757-4.124A1.732,1.732,0,0,1,345.135,406.715Z" transform="translate(-297.512 -174.544)" fill="#263238"/>
          <g id="Group_27" data-name="Group 27" transform="translate(48.401 217.609)" opacity="0.2">
            <path id="Path_79" data-name="Path 79" d="M355.533,388.293h-6.624l-.264,7.9h6.624Z" transform="translate(-348.645 -388.293)"/>
          </g>
          <path id="Path_80" data-name="Path 80" d="M315.838,169.24a129.918,129.918,0,0,1-11.9-5.339,71.762,71.762,0,0,1-11.386-6.935,26.16,26.16,0,0,1-2.7-2.427c-.221-.237-.441-.457-.658-.729a10.455,10.455,0,0,1-.695-.894,6.3,6.3,0,0,1-1.058-2.853,6.422,6.422,0,0,1,.388-2.861,8.655,8.655,0,0,1,1.112-2.062,14.747,14.747,0,0,1,2.679-2.782,33.114,33.114,0,0,1,5.773-3.688c.98-.521,1.979-.99,2.991-1.421s2.009-.847,3.087-1.217l1.4,3.046a54.116,54.116,0,0,0-9.644,7.24,10.835,10.835,0,0,0-1.548,1.968c-.375.622-.371,1.088-.307,1.052.032,0,.019-.014.111.077l.315.338c.118.141.285.286.434.431a20.264,20.264,0,0,0,2.134,1.714,50.827,50.827,0,0,0,5.085,3.138c1.782.99,3.615,1.937,5.482,2.835,3.725,1.784,7.587,3.5,11.376,5.069Z" transform="translate(-287.413 -117.823)" fill="#ffb573"/>
          <path id="Path_81" data-name="Path 81" d="M310.779,136.066l1.095-2.375-4.977-1.729s-1.55,4.666.3,6.819h0A4.776,4.776,0,0,0,310.779,136.066Z" transform="translate(-291.368 -116.97)" fill="#ffb573"/>
          <path id="Path_82" data-name="Path 82" d="M312.035,127.352l-3.979-1.147-1,4.552,4.977,1.728Z" transform="translate(-291.529 -115.764)" fill="#ffb573"/>
          <path id="Path_83" data-name="Path 83" d="M377.144,132.97l.579-5.549-5.128,1.205s-.075,5.2,2.638,6.03Z" transform="translate(-305.263 -116.018)" fill="#ffb573"/>
          <path id="Path_84" data-name="Path 84" d="M375.072,122.507l-3.341,1.56.683,3.53,5.128-1.205Z" transform="translate(-305.082 -114.989)" fill="#ffb573"/>
          <path id="Path_85" data-name="Path 85" d="M342.648,135.933c.241,6.566.483,9.341-2.484,13.016-4.463,5.527-12.582,4.387-14.78-1.975-1.979-5.727-2.041-15.5,4.093-18.729A8.963,8.963,0,0,1,342.648,135.933Z" transform="translate(-295.12 -115.967)" fill="#ffb573"/>
          <g id="Group_28" data-name="Group 28" transform="translate(23.673)">
            <path id="Path_86" data-name="Path 86" d="M339.621,147.69c6.447-2.786,10.687-8.659,8.9-17.844-1.712-8.787-7.644-9.655-10.095-7.832s-8.558-.894-12.224,2.19c-6.35,5.344-.346,11.106,2.781,14.52C330.848,142.565,333.3,150.424,339.621,147.69Z" transform="translate(-318.627 -114.721)" fill="#263238"/>
            <path id="Path_87" data-name="Path 87" d="M340.194,127.346a6.55,6.55,0,1,0,1.442-9.419A6.744,6.744,0,0,0,340.194,127.346Z" transform="translate(-321.876 -113.798)" fill="#407bff"/>
            <path id="Path_88" data-name="Path 88" d="M342.622,120.905c-.93-5.294,4.079-9.377,10.779-7.4s3.155,7.912,1.782,12.654,2.231,9.259,3.739,5.648-1.026-4.727-1.026-4.727,7.112,1.844.505,9.863-12.59-.836-10.973-6.061C348.735,126.655,343.5,125.91,342.622,120.905Z" transform="translate(-322.632 -112.996)" fill="#263238"/>
            <path id="Path_89" data-name="Path 89" d="M330.963,125.154c-3.058-1.6-8.237-2.886-11.185,2.073a9.283,9.283,0,0,0-.854,5.524l9,.6Z" transform="translate(-317.668 -115.244)" fill="#263238"/>
            <path id="Path_90" data-name="Path 90" d="M317.56,131.1h-.013a.2.2,0,0,1-.185-.209,9.381,9.381,0,0,1,2.145-5.309c4.639-4.82,10.078-.822,11.635.519a.2.2,0,0,1-.258.3c-1.49-1.283-6.693-5.114-11.092-.544a9.144,9.144,0,0,0-2.036,5.06A.2.2,0,0,1,317.56,131.1Z" transform="translate(-317.362 -115.148)" fill="#263238"/>
          </g>
          <path id="Path_91" data-name="Path 91" d="M330.784,142.528a5.465,5.465,0,0,1-1.308,3.381c-1.092,1.277-2.344.649-2.631-.768-.259-1.275,0-3.476,1.379-4.248A1.668,1.668,0,0,1,330.784,142.528Z" transform="translate(-295.657 -118.785)" fill="#ffb573"/>
          <g id="Group_29" data-name="Group 29" transform="translate(33.705 83.888)">
            <path id="Path_92" data-name="Path 92" d="M330.053,219.122s.422,45.96,4.409,71.571c3.22,20.686,9.18,68.523,9.18,68.523h9.029s.882-46.181-.753-66.641c-4.136-51.772,6.538-61.451-2.076-73.453Z" transform="translate(-330.053 -219.122)" fill="#263238"/>
            <path id="Path_93" data-name="Path 93" d="M330.053,219.122s.422,45.96,4.409,71.571c3.22,20.686,9.18,68.523,9.18,68.523h9.029s.882-46.181-.753-66.641c-4.136-51.772,6.538-61.451-2.076-73.453Z" transform="translate(-330.053 -219.122)" fill="#fff" opacity="0.1"/>
          </g>
          <path id="Path_94" data-name="Path 94" d="M334.915,244.462c3.17,13.872.64,35.72-1.091,45.34-1.834-14.608-2.759-33.539-3.217-47.411C332.243,239.735,333.793,239.561,334.915,244.462Z" transform="translate(-296.464 -139.724)" opacity="0.3"/>
          <path id="Path_95" data-name="Path 95" d="M345.664,395.4h11.5l.6-4.035-12.17-.412Z" transform="translate(-299.605 -171.242)" fill="#407bff"/>
          <g id="Group_30" data-name="Group 30" transform="translate(48.468 41.593)">
            <path id="Path_96" data-name="Path 96" d="M349.6,169.114c1.082-2.151,6.9-3.5,10.075-3.5l2.379,10.564s-6.332,9.4-8.966,8.4C349.979,183.406,347.284,173.723,349.6,169.114Z" transform="translate(-348.73 -165.615)" fill="#407bff"/>
            <path id="Path_97" data-name="Path 97" d="M349.6,169.114c1.082-2.151,6.9-3.5,10.075-3.5l2.379,10.564s-6.332,9.4-8.966,8.4C349.979,183.406,347.284,173.723,349.6,169.114Z" transform="translate(-348.73 -165.615)" opacity="0.4"/>
          </g>
          <path id="Path_98" data-name="Path 98" d="M340.329,393.25a.157.157,0,0,0-.157-.237c-.332.05-3.258.515-3.653,1.35a.5.5,0,0,0,.03.494.871.871,0,0,0,.678.451c.959.1,2.344-1.232,3.084-2.033A.182.182,0,0,0,340.329,393.25Zm-3.51,1.215c.271-.443,1.783-.852,2.939-1.065-1.043,1.061-1.961,1.65-2.5,1.6a.563.563,0,0,1-.442-.3.2.2,0,0,1-.016-.2C336.807,394.486,336.813,394.475,336.819,394.465Z" transform="translate(-297.692 -171.673)" fill="#407bff"/>
          <path id="Path_99" data-name="Path 99" d="M340.439,392.871a.165.165,0,0,0,.014-.032.155.155,0,0,0-.029-.153c-.05-.058-1.222-1.409-2.3-1.479a1.135,1.135,0,0,0-.862.292c-.325.291-.3.544-.216.705.342.678,2.445.914,3.293.738A.162.162,0,0,0,340.439,392.871Zm-3.095-1a.639.639,0,0,1,.125-.142.818.818,0,0,1,.632-.213,3.626,3.626,0,0,1,1.884,1.155c-.937.079-2.455-.206-2.661-.613A.174.174,0,0,1,337.344,391.876Z" transform="translate(-297.802 -171.294)" fill="#407bff"/>
          <path id="Path_100" data-name="Path 100" d="M346.718,386.1l-6.056,2.69-2.7-5.616-3.526-7.355-.413-.855,6.049-2.694.468.962,3.418,7.122Z" transform="translate(-297.18 -167.326)" fill="#ffb573"/>
          <path id="Path_101" data-name="Path 101" d="M344.069,380.609l-6,2.819-3.526-7.355,6.1-2.586Z" transform="translate(-297.29 -167.581)" opacity="0.2"/>
          <g id="Group_31" data-name="Group 31" transform="translate(11.601 83.888)">
            <path id="Path_102" data-name="Path 102" d="M317.092,219.122s-19.345,48.086-14.1,70.731c4.739,20.465,25.693,59.221,25.693,59.221l8.1-4.067s-12.954-46.785-14.359-56.95c-2.734-19.776,14.841-47.69,14.841-68.936Z" transform="translate(-302.089 -219.122)" fill="#263238"/>
            <path id="Path_103" data-name="Path 103" d="M317.092,219.122s-19.345,48.086-14.1,70.731c4.739,20.465,25.693,59.221,25.693,59.221l8.1-4.067s-12.954-46.785-14.359-56.95c-2.734-19.776,14.841-47.69,14.841-68.936Z" transform="translate(-302.089 -219.122)" fill="#fff" opacity="0.1"/>
          </g>
          <path id="Path_104" data-name="Path 104" d="M339.55,390.915l6.015-4.378a.524.524,0,0,1,.693.055l4.148,4.259a1.065,1.065,0,0,1-.165,1.577c-2.123,1.49-3.223,2.1-5.868,4.027-1.627,1.184-4.869,3.8-7.116,5.438-2.2,1.6-3.984-.5-3.194-1.382,3.538-3.955,4.283-6.4,4.833-8.617A1.729,1.729,0,0,1,339.55,390.915Z" transform="translate(-297.148 -170.294)" fill="#263238"/>
          <path id="Path_105" data-name="Path 105" d="M334.521,383.3l10.458-4.783-1.342-4.262-11.2,5.108Z" transform="translate(-296.848 -167.742)" fill="#407bff"/>
          <g id="Group_32" data-name="Group 32" transform="translate(17.857 38.985)">
            <path id="Path_106" data-name="Path 106" d="M323.884,167.884c-.868-2.246-8.424-4.709-12.215-5.569L310,174.779s6.19,8.9,8.908,8.161C322.122,182.071,325.743,172.7,323.884,167.884Z" transform="translate(-310.004 -162.315)" fill="#407bff"/>
            <path id="Path_107" data-name="Path 107" d="M323.884,167.884c-.868-2.246-8.424-4.709-12.215-5.569L310,174.779s6.19,8.9,8.908,8.161C322.122,182.071,325.743,172.7,323.884,167.884Z" transform="translate(-310.004 -162.315)" opacity="0.4"/>
          </g>
          <g id="Group_33" data-name="Group 33" transform="translate(22.652 42.009)">
            <path id="Path_108" data-name="Path 108" d="M316.857,168.059s-3.154,1.111,3.164,39.961h26.891c-.451-10.945-.464-17.693,4.766-40.153a79.289,79.289,0,0,0-11.419-1.5,85.563,85.563,0,0,0-12.211,0C322.805,166.841,316.857,168.059,316.857,168.059Z" transform="translate(-316.07 -166.141)" fill="#407bff"/>
            <path id="Path_109" data-name="Path 109" d="M316.857,168.059s-3.154,1.111,3.164,39.961h26.891c-.451-10.945-.464-17.693,4.766-40.153a79.289,79.289,0,0,0-11.419-1.5,85.563,85.563,0,0,0-12.211,0C322.805,166.841,316.857,168.059,316.857,168.059Z" transform="translate(-316.07 -166.141)" opacity="0.4"/>
          </g>
          <g id="Group_34" data-name="Group 34" transform="translate(25.769 82.108)">
            <path id="Path_110" data-name="Path 110" d="M348.141,217.072l1.213,2.408c.094.187-.127.377-.438.377h-28.2c-.242,0-.443-.119-.458-.271l-.243-2.407c-.017-.168.194-.308.458-.308H347.7A.489.489,0,0,1,348.141,217.072Z" transform="translate(-320.013 -216.87)" fill="#407bff"/>
            <path id="Path_111" data-name="Path 111" d="M348.141,217.072l1.213,2.408c.094.187-.127.377-.438.377h-28.2c-.242,0-.443-.119-.458-.271l-.243-2.407c-.017-.168.194-.308.458-.308H347.7A.489.489,0,0,1,348.141,217.072Z" transform="translate(-320.013 -216.87)" fill="#fff" opacity="0.3"/>
          </g>
          <path id="Path_112" data-name="Path 112" d="M350.805,220.06h.73c.145,0,.256-.074.246-.166l-.342-3.127c-.009-.092-.137-.167-.282-.167h-.729c-.145,0-.256.075-.247.167l.342,3.127C350.533,219.986,350.661,220.06,350.805,220.06Z" transform="translate(-300.566 -134.706)" fill="#263238"/>
          <path id="Path_113" data-name="Path 113" d="M328.442,220.06h.729c.145,0,.256-.074.246-.166l-.342-3.127c-.009-.092-.137-.167-.282-.167h-.729c-.145,0-.256.075-.246.167l.341,3.127C328.17,219.986,328.3,220.06,328.442,220.06Z" transform="translate(-295.879 -134.706)" fill="#263238"/>
        </g>
      </g>
    </g>
  </g>
</svg>
