<svg xmlns="http://www.w3.org/2000/svg" width="38" height="38" viewBox="0 0 38 38">
  <g id="Group_194" data-name="Group 194" transform="translate(-1405 -318)">
    <rect id="Rectangle_146" data-name="Rectangle 146" width="38" height="38" rx="5" transform="translate(1405 318)" fill="rgba(59,89,152,0.08)"/>
    <g id="Icon_feather-trash-2" data-name="Icon feather-trash-2" transform="translate(1408.797 322)">
      <path id="Path_13" data-name="Path 13" d="M4.5,9H25.906" transform="translate(0 -1.243)" fill="none" stroke="#4366a5" stroke-linecap="round" stroke-linejoin="round" stroke-width="2"/>
      <path id="Path_14" data-name="Path 14" d="M24.149,7.757V24.406a2.378,2.378,0,0,1-2.378,2.378H9.878A2.378,2.378,0,0,1,7.5,24.406V7.757m3.568,0V5.378A2.378,2.378,0,0,1,13.446,3H18.2a2.378,2.378,0,0,1,2.378,2.378V7.757" transform="translate(-0.622)" fill="none" stroke="#4366a5" stroke-linecap="round" stroke-linejoin="round" stroke-width="2"/>
      <path id="Path_15" data-name="Path 15" d="M15,16.5v7.135" transform="translate(-2.176 -2.797)" fill="none" stroke="#4366a5" stroke-linecap="round" stroke-linejoin="round" stroke-width="2"/>
      <path id="Path_16" data-name="Path 16" d="M21,16.5v7.135" transform="translate(-3.419 -2.797)" fill="none" stroke="#4366a5" stroke-linecap="round" stroke-linejoin="round" stroke-width="2"/>
    </g>
  </g>
</svg>
